<svg xmlns="http://www.w3.org/2000/svg" xmlns:xlink="http://www.w3.org/1999/xlink" width="1080" zoomAndPan="magnify" viewBox="0 0 810 299.999988" height="400" preserveAspectRatio="xMidYMid meet" version="1.0"><defs><g/><clipPath id="119ac8a013"><path d="M 0 68.714844 L 287 68.714844 L 287 230.714844 L 0 230.714844 Z M 0 68.714844 " clip-rule="nonzero"/></clipPath></defs><g clip-path="url(#119ac8a013)"><path fill="#000000" d="M 273.640625 171.851562 C 274.398438 172.457031 275.148438 172.957031 275.792969 173.5625 C 276.871094 174.566406 277.917969 175.605469 278.917969 176.691406 C 280.023438 177.882812 281.070312 179.125 282.128906 180.355469 C 282.445312 180.730469 282.714844 181.230469 282.484375 181.683594 C 282.265625 182.117188 281.765625 182.289062 281.234375 182.269531 C 281.121094 182.261719 281.003906 182.261719 280.890625 182.269531 C 280.523438 182.320312 280.035156 182.078125 279.871094 182.539062 C 279.8125 182.703125 280.195312 183.019531 280.390625 183.261719 C 281.339844 184.453125 282.3125 185.636719 283.265625 186.839844 C 283.609375 187.273438 283.640625 187.773438 283.246094 188.167969 C 282.707031 188.714844 282.609375 189.371094 282.515625 190.082031 C 282.371094 191.234375 282.082031 192.382812 281.851562 193.527344 C 281.832031 193.601562 281.839844 193.679688 281.832031 193.746094 C 281.753906 194.921875 281.621094 196.085938 281.609375 197.257812 C 281.582031 201.597656 281.609375 205.945312 281.589844 210.285156 C 281.589844 210.753906 281.792969 211.265625 281.390625 211.71875 C 281.300781 211.8125 281.476562 212.207031 281.609375 212.410156 C 282.675781 214.015625 283.128906 215.890625 284.003906 217.585938 C 284.648438 218.824219 285.273438 220.085938 285.898438 221.335938 C 286.175781 221.886719 286.40625 222.453125 286.726562 222.972656 C 287.101562 223.578125 286.925781 224.234375 286.925781 224.859375 C 286.925781 225.234375 286.089844 225.609375 285.648438 225.511719 C 285.292969 225.433594 284.9375 225.339844 284.570312 225.300781 C 283.351562 225.164062 282.121094 225.175781 280.925781 224.839844 C 280.785156 224.800781 280.621094 224.828125 280.464844 224.828125 C 279.1875 224.847656 277.945312 224.625 276.707031 224.375 C 275.820312 224.203125 274.910156 224.234375 274.015625 224.117188 C 273.179688 224.011719 272.351562 223.828125 271.515625 223.703125 C 270.785156 223.597656 270.042969 223.519531 269.304688 223.425781 C 267.457031 223.195312 265.613281 223.03125 263.785156 222.703125 C 262.101562 222.40625 260.421875 222.191406 258.726562 222 C 257.285156 221.835938 255.835938 221.671875 254.390625 221.53125 C 252.554688 221.347656 250.71875 221.210938 248.890625 221.046875 C 247.796875 220.953125 246.679688 221.039062 245.625 220.828125 C 244.171875 220.539062 242.71875 220.796875 241.296875 220.617188 C 237.921875 220.171875 234.539062 220.480469 231.164062 220.414062 C 227.75 220.355469 224.335938 220.242188 220.933594 220.460938 C 218.714844 220.605469 216.484375 220.402344 214.289062 220.683594 C 212.183594 220.953125 210.070312 220.644531 207.992188 220.902344 C 205.886719 221.171875 203.773438 220.894531 201.695312 221.152344 C 200.242188 221.335938 198.792969 221.144531 197.371094 221.375 C 195.996094 221.597656 194.609375 221.386719 193.28125 221.617188 C 191.910156 221.855469 190.535156 221.617188 189.195312 221.835938 C 187.984375 222.039062 186.773438 221.921875 185.574219 222.058594 C 183.660156 222.269531 181.753906 222.453125 179.832031 222.519531 C 178.226562 222.578125 176.621094 222.75 175.027344 222.980469 C 173.507812 223.203125 171.976562 223.328125 170.449219 223.464844 C 168.804688 223.597656 167.160156 223.75 165.527344 223.945312 C 163.59375 224.164062 161.640625 224.320312 159.738281 224.820312 C 158.027344 225.28125 156.335938 225.78125 154.875 226.820312 C 153.316406 227.925781 151.507812 228.445312 149.730469 228.996094 C 147.789062 229.589844 145.769531 229.582031 143.769531 229.445312 C 142.347656 229.351562 140.941406 228.9375 139.519531 228.792969 C 137.941406 228.636719 136.480469 228.128906 134.992188 227.648438 C 133.636719 227.214844 132.414062 226.53125 131.214844 225.839844 C 130.550781 225.464844 129.886719 225.183594 129.203125 225.089844 C 127.414062 224.839844 125.664062 224.453125 123.894531 224.144531 C 122.464844 223.894531 121.003906 223.855469 119.558594 223.644531 C 117.773438 223.386719 115.964844 223.347656 114.175781 223.136719 C 112.6875 222.960938 111.207031 223.085938 109.734375 222.953125 C 105.042969 222.53125 100.332031 222.585938 95.648438 222.789062 C 91.023438 222.980469 86.402344 222.75 81.796875 223.011719 C 80.082031 223.105469 78.351562 222.980469 76.660156 223.230469 C 75.171875 223.453125 73.679688 223.230469 72.21875 223.464844 C 70.804688 223.683594 69.394531 223.472656 68.019531 223.695312 C 66.679688 223.914062 65.34375 223.703125 64.046875 223.925781 C 62.789062 224.136719 61.527344 223.945312 60.308594 224.15625 C 59.125 224.359375 57.941406 224.175781 56.796875 224.386719 C 55.691406 224.589844 54.597656 224.453125 53.519531 224.597656 C 51.730469 224.847656 49.921875 224.894531 48.125 225.050781 C 46.636719 225.175781 45.15625 225.347656 43.664062 225.511719 C 42.328125 225.65625 40.992188 225.78125 39.675781 225.984375 C 38.308594 226.203125 36.945312 226.347656 35.570312 226.464844 C 33.992188 226.589844 32.433594 226.9375 30.859375 227.128906 C 29.773438 227.261719 28.65625 227.1875 27.589844 227.398438 C 26.570312 227.597656 25.53125 227.484375 24.511719 227.800781 C 23.742188 228.042969 22.878906 227.992188 22.0625 228.0625 C 21.089844 228.148438 20.089844 228.109375 19.136719 228.320312 C 17.839844 228.601562 16.503906 228.5625 15.226562 228.976562 C 14.601562 229.175781 13.898438 229.128906 13.234375 229.234375 C 11.785156 229.457031 10.332031 229.714844 8.871094 229.925781 C 8.089844 230.042969 7.304688 230.0625 6.523438 230.175781 C 5.6875 230.300781 4.871094 230.542969 4.042969 230.621094 C 3.160156 230.695312 2.253906 230.714844 1.371094 230.609375 C 0.46875 230.503906 0.199219 229.667969 0.667969 228.707031 C 0.988281 228.0625 1.3125 227.425781 1.648438 226.792969 C 2.648438 224.914062 3.628906 223.03125 4.667969 221.183594 C 5.46875 219.769531 6.226562 218.335938 6.574219 216.738281 C 6.679688 216.230469 6.859375 215.652344 6.714844 215.191406 C 6.378906 214.132812 6.648438 213.0625 6.503906 212.023438 C 6.214844 209.8125 6.484375 207.570312 6.234375 205.378906 C 5.9375 202.761719 6.179688 200.164062 6.042969 197.554688 C 5.976562 196.265625 6.0625 194.988281 5.871094 193.6875 C 5.6875 192.476562 5.957031 191.199219 6.0625 189.957031 C 6.082031 189.765625 6.304688 189.601562 6.4375 189.417969 C 7.449219 188.011719 8.464844 186.617188 9.464844 185.203125 C 9.523438 185.128906 9.457031 184.839844 9.417969 184.828125 C 9.015625 184.773438 8.773438 184.558594 8.839844 184.144531 C 8.898438 183.75 8.929688 183.300781 9.148438 183 C 10.035156 181.808594 11.003906 180.664062 11.925781 179.488281 C 13.234375 177.824219 14.4375 176.066406 15.832031 174.488281 C 17.273438 172.863281 18.292969 170.917969 19.878906 169.425781 C 20.082031 169.234375 20.082031 169.042969 19.726562 168.976562 C 18.9375 168.832031 18.148438 168.65625 17.359375 168.515625 C 16.648438 168.390625 15.9375 168.273438 15.292969 167.886719 C 14.523438 167.417969 14.445312 167.003906 15.050781 166.359375 C 16.175781 165.15625 17.261719 163.925781 18.4375 162.761719 C 19.957031 161.25 21.570312 159.816406 23.089844 158.308594 C 24.445312 156.949219 25.703125 155.507812 27.050781 154.140625 C 28.042969 153.140625 29.117188 152.21875 30.148438 151.246094 C 30.292969 151.109375 30.347656 150.878906 30.445312 150.6875 C 30.261719 150.660156 30.089844 150.609375 29.90625 150.59375 C 28.1875 150.4375 26.464844 150.351562 24.753906 150.109375 C 22.464844 149.792969 20.175781 149.398438 17.90625 148.945312 C 16.734375 148.714844 15.570312 148.550781 14.378906 148.476562 C 13.832031 148.4375 13.214844 148.207031 12.792969 147.871094 C 12.292969 147.476562 12.464844 146.761719 12.628906 146.261719 C 13.082031 144.867188 13.648438 143.511719 14.195312 142.144531 C 14.976562 140.191406 15.996094 138.363281 17.226562 136.652344 C 17.851562 135.777344 18.496094 134.910156 19.195312 134.09375 C 20.511719 132.574219 21.859375 131.082031 23.214844 129.589844 C 24.347656 128.351562 25.511719 127.128906 26.667969 125.90625 C 28.222656 124.261719 29.761719 122.605469 31.359375 120.992188 C 37.625 114.621094 43.894531 108.265625 50.183594 101.925781 C 51.722656 100.375 53.289062 98.835938 54.941406 97.414062 C 56.882812 95.730469 58.933594 94.160156 60.941406 92.546875 C 62.824219 91.035156 64.691406 89.484375 66.632812 88.035156 C 68.179688 86.878906 69.84375 85.859375 71.429688 84.753906 C 72.765625 83.820312 74.066406 84.039062 75.410156 84.695312 C 77.152344 85.542969 78.910156 86.339844 80.660156 87.167969 C 82.574219 88.070312 84.515625 88.917969 86.382812 89.917969 C 86.996094 90.253906 87.101562 90.023438 87.363281 89.609375 C 88.765625 87.359375 90.1875 85.117188 91.621094 82.886719 C 92.96875 80.789062 94.0625 78.558594 95.101562 76.304688 C 95.917969 74.535156 96.792969 72.796875 96.976562 70.804688 C 97.015625 70.390625 97.214844 69.976562 97.378906 69.582031 C 97.699219 68.851562 98.359375 68.695312 98.957031 69.214844 C 100.160156 70.246094 101.390625 71.257812 102.542969 72.351562 C 104.023438 73.757812 105.542969 75.160156 106.871094 76.710938 C 108.792969 78.941406 110.550781 81.300781 112.398438 83.597656 C 113.503906 84.972656 114.695312 86.273438 115.753906 87.675781 C 117.320312 89.785156 118.945312 91.832031 120.492188 93.960938 C 122.222656 96.335938 123.925781 98.730469 125.539062 101.183594 C 126.742188 103 127.875 104.859375 128.992188 106.726562 C 130.328125 108.957031 131.683594 111.179688 132.925781 113.46875 C 134.105469 115.640625 135.15625 117.894531 136.242188 120.117188 C 137.921875 123.570312 139.316406 127.128906 140.722656 130.707031 C 141.953125 133.851562 142.902344 137.085938 144.105469 140.242188 C 144.492188 141.25 144.597656 142.355469 144.867188 143.414062 C 144.921875 143.65625 145.085938 143.867188 145.203125 144.089844 C 145.316406 143.90625 145.453125 143.734375 145.558594 143.550781 C 145.828125 143.039062 146.058594 142.511719 146.363281 142.019531 C 147.558594 140.105469 148.710938 138.164062 149.988281 136.316406 C 151.335938 134.371094 152.816406 132.515625 154.25 130.628906 C 155.730469 128.667969 157.34375 126.8125 159.09375 125.078125 C 161.605469 122.597656 164.054688 120.066406 166.585938 117.605469 C 168.640625 115.613281 170.757812 113.679688 172.882812 111.765625 C 174.535156 110.273438 176.207031 108.8125 177.9375 107.40625 C 179.871094 105.847656 181.878906 104.386719 183.839844 102.867188 C 186.765625 100.617188 189.984375 98.828125 193.070312 96.824219 C 197.207031 94.152344 201.648438 92.082031 206.023438 89.890625 C 208.167969 88.8125 210.378906 87.878906 212.550781 86.851562 C 213.464844 86.417969 214.347656 85.925781 215.214844 85.417969 C 215.617188 85.175781 215.914062 85.222656 216.339844 85.417969 C 217.683594 86.023438 218.886719 86.800781 220.039062 87.726562 C 221.945312 89.253906 223.914062 90.707031 225.867188 92.179688 C 227.078125 93.09375 228.308594 93.96875 229.5 94.902344 C 231.058594 96.113281 232.605469 97.355469 234.125 98.605469 C 234.882812 99.230469 235.605469 99.90625 236.335938 100.578125 C 237.625 101.78125 238.914062 102.984375 240.183594 104.195312 C 242.105469 106.023438 244.039062 107.839844 245.910156 109.714844 C 247.132812 110.929688 248.304688 112.199219 249.449219 113.488281 C 250.824219 115.035156 252.160156 116.613281 253.476562 118.210938 C 255.113281 120.203125 256.746094 122.195312 258.324219 124.222656 C 260.699219 127.261719 263.226562 130.1875 265.410156 133.382812 C 267.023438 135.75 268.785156 138.007812 270.304688 140.433594 C 271.449219 142.25 272.324219 144.242188 273.285156 146.167969 C 273.628906 146.859375 272.890625 147.976562 272.074219 148.042969 C 270.949219 148.140625 269.804688 148.148438 268.6875 148.292969 C 267.34375 148.464844 266.015625 148.753906 264.667969 148.976562 C 264.007812 149.082031 263.332031 149.121094 262.679688 149.214844 C 261.488281 149.390625 260.304688 149.6875 259.121094 149.839844 C 258.015625 149.984375 256.921875 150.160156 255.835938 150.378906 C 254.160156 150.71875 252.488281 151.09375 250.824219 151.476562 C 249.09375 151.871094 247.363281 152.273438 245.644531 152.707031 C 243.539062 153.238281 241.421875 153.726562 239.355469 154.371094 C 236.652344 155.21875 233.980469 156.160156 231.316406 157.132812 C 229.164062 157.921875 227.058594 158.816406 224.941406 159.703125 C 218.183594 162.519531 211.664062 165.859375 205.175781 169.234375 C 202.359375 170.699219 199.617188 172.304688 196.851562 173.84375 C 195.175781 174.777344 193.496094 175.679688 191.859375 176.671875 C 189.8125 177.914062 187.746094 179.144531 185.785156 180.519531 C 183.515625 182.105469 181.332031 183.828125 179.128906 185.523438 C 177.304688 186.925781 175.488281 188.351562 173.699219 189.804688 C 172.527344 190.753906 171.429688 191.785156 170.265625 192.746094 C 169.207031 193.621094 168.101562 194.441406 167.027344 195.304688 C 166.410156 195.804688 165.816406 196.335938 165.226562 196.863281 C 164.074219 197.921875 162.929688 199 161.785156 200.066406 C 159.410156 202.289062 157 204.472656 154.671875 206.742188 C 152.96875 208.40625 151.375 210.179688 149.730469 211.898438 C 149.652344 211.976562 149.632812 212.113281 149.585938 212.226562 C 149.71875 212.1875 149.863281 212.167969 149.980469 212.101562 C 151.558594 211.140625 153.269531 210.410156 154.730469 209.234375 C 156.230469 208.03125 157.796875 206.925781 159.335938 205.773438 C 160.929688 204.570312 162.515625 203.355469 164.113281 202.15625 C 165.351562 201.222656 166.59375 200.277344 167.84375 199.363281 C 169.238281 198.335938 170.632812 197.304688 172.046875 196.324219 C 174.476562 194.632812 176.917969 192.957031 179.390625 191.3125 C 180.410156 190.628906 181.515625 190.082031 182.574219 189.457031 C 183.601562 188.851562 184.554688 188.050781 185.660156 187.648438 C 187.160156 187.097656 188.515625 186.3125 189.9375 185.617188 C 193.390625 183.933594 196.90625 182.433594 200.492188 181.058594 C 204.445312 179.546875 208.417969 178.09375 212.464844 176.835938 C 215.320312 175.949219 218.164062 175.027344 221.070312 174.304688 C 222.894531 173.851562 224.691406 173.304688 226.539062 172.929688 C 227.816406 172.667969 229.066406 172.273438 230.347656 172.015625 C 232.105469 171.660156 233.882812 171.378906 235.652344 171.074219 C 237.421875 170.765625 239.191406 170.410156 240.96875 170.160156 C 242.488281 169.9375 244.019531 169.859375 245.535156 169.667969 C 247.113281 169.464844 248.671875 169.1875 250.25 168.984375 C 251.296875 168.859375 252.363281 168.910156 253.402344 168.714844 C 254.535156 168.515625 255.71875 168.707031 256.824219 168.28125 C 256.996094 168.214844 257.207031 168.28125 257.402344 168.273438 C 258.726562 168.195312 260.054688 168.128906 261.371094 168.042969 C 262.113281 167.996094 262.863281 167.886719 263.601562 167.8125 C 264.34375 167.734375 265.09375 167.65625 265.832031 167.582031 C 265.910156 167.570312 266.023438 167.609375 266.0625 167.570312 C 266.738281 166.773438 267.628906 167.175781 268.4375 167.128906 C 269.398438 167.070312 270.378906 167.148438 271.34375 167.109375 C 272.785156 167.0625 274.226562 166.964844 275.660156 166.878906 C 275.765625 166.867188 275.859375 166.820312 275.964844 166.78125 C 275.929688 166.648438 275.929688 166.472656 275.839844 166.386719 C 274.042969 164.65625 272.253906 162.90625 270.429688 161.210938 C 269.496094 160.347656 268.496094 159.539062 267.496094 158.738281 C 266.21875 157.730469 264.917969 156.738281 263.613281 155.777344 C 262.285156 154.796875 260.929688 153.84375 259.574219 152.902344 C 258.890625 152.417969 258.171875 151.976562 257.488281 151.496094 C 257.179688 151.285156 256.957031 150.9375 257.265625 150.640625 C 257.46875 150.4375 257.910156 150.3125 258.179688 150.390625 C 258.6875 150.535156 259.1875 150.792969 259.621094 151.09375 C 261.976562 152.71875 264.332031 154.34375 266.648438 156.027344 C 268.5625 157.414062 270.410156 158.882812 272.109375 160.539062 C 273.621094 162.011719 275.179688 163.433594 276.6875 164.90625 C 277.089844 165.292969 277.4375 165.753906 277.753906 166.203125 C 278.082031 166.675781 277.792969 167.464844 277.320312 167.8125 C 276.734375 168.246094 276.042969 168.378906 275.390625 168.464844 C 274.042969 168.648438 272.667969 168.65625 271.304688 168.726562 C 271.035156 168.746094 270.753906 168.707031 270.503906 168.765625 C 270.304688 168.8125 270.140625 168.964844 269.957031 169.082031 C 270.101562 169.195312 270.246094 169.3125 270.398438 169.425781 C 271.476562 170.246094 272.535156 171.015625 273.640625 171.851562 M 242.433594 151.785156 C 242.546875 151.785156 242.664062 151.8125 242.777344 151.785156 C 244.566406 151.324219 246.335938 150.832031 248.132812 150.398438 C 249.652344 150.035156 251.191406 149.726562 252.71875 149.410156 C 254.21875 149.101562 255.726562 148.8125 257.238281 148.53125 C 258.285156 148.339844 259.34375 148.1875 260.390625 148.003906 C 261.582031 147.800781 262.765625 147.542969 263.957031 147.378906 C 264.929688 147.242188 265.917969 147.28125 266.882812 147.117188 C 268.246094 146.878906 269.601562 146.667969 270.996094 146.667969 C 271.734375 146.667969 271.785156 146.609375 271.417969 145.90625 C 270.535156 144.214844 269.679688 142.511719 268.699219 140.875 C 267.792969 139.375 266.773438 137.941406 265.746094 136.519531 C 264.554688 134.863281 263.3125 133.257812 262.074219 131.640625 C 260.765625 129.929688 259.449219 128.226562 258.101562 126.542969 C 257.285156 125.511719 256.390625 124.539062 255.574219 123.519531 C 254.402344 122.078125 253.277344 120.597656 252.105469 119.144531 C 251.535156 118.441406 250.890625 117.789062 250.304688 117.09375 C 248.960938 115.527344 247.699219 113.863281 246.257812 112.390625 C 243.671875 109.746094 240.988281 107.195312 238.308594 104.648438 C 236.855469 103.261719 235.335938 101.933594 233.816406 100.617188 C 232.347656 99.335938 230.867188 98.046875 229.335938 96.835938 C 227.921875 95.71875 226.421875 94.699219 224.980469 93.613281 C 223.644531 92.613281 222.328125 91.59375 221.011719 90.574219 C 219.65625 89.535156 218.328125 88.464844 216.945312 87.464844 C 216.445312 87.101562 215.894531 86.984375 215.203125 87.332031 C 211.886719 88.957031 208.503906 90.4375 205.195312 92.074219 C 202.550781 93.371094 199.957031 94.777344 197.378906 96.210938 C 195.195312 97.421875 193.015625 98.652344 190.957031 100.058594 C 187.640625 102.308594 184.1875 104.367188 181.160156 107.011719 C 179.582031 108.390625 177.898438 109.628906 176.304688 110.976562 C 174.910156 112.152344 173.554688 113.363281 172.21875 114.59375 C 169.910156 116.71875 167.601562 118.835938 165.351562 121.019531 C 163.949219 122.375 162.710938 123.90625 161.304688 125.261719 C 158.757812 127.714844 156.449219 130.371094 154.335938 133.199219 C 153.34375 134.527344 152.355469 135.855469 151.433594 137.230469 C 150.039062 139.277344 148.652344 141.335938 147.363281 143.453125 C 146.460938 144.933594 145.703125 146.511719 145.613281 148.300781 C 145.558594 149.707031 145.460938 151.109375 145.421875 152.507812 C 145.191406 159.335938 145.632812 166.167969 145.164062 172.996094 C 145.066406 174.429688 145.164062 175.875 145.335938 177.324219 C 145.585938 179.402344 145.257812 181.519531 145.578125 183.625 C 145.816406 185.195312 145.558594 186.8125 145.796875 188.417969 C 146.046875 190.0625 145.972656 191.765625 146.019531 193.429688 C 146.183594 199.25 145.988281 205.078125 146.308594 210.890625 C 146.316406 211.121094 146.257812 211.371094 146.316406 211.582031 C 146.414062 211.910156 146.597656 212.207031 146.738281 212.515625 C 147 212.390625 147.308594 212.3125 147.5 212.121094 C 148.671875 210.910156 149.808594 209.667969 150.960938 208.445312 C 152.191406 207.136719 153.414062 205.808594 154.664062 204.519531 C 155.210938 203.953125 155.863281 203.480469 156.449219 202.953125 C 157.632812 201.867188 158.824219 200.789062 159.96875 199.664062 C 161.96875 197.691406 164.066406 195.835938 166.257812 194.0625 C 167.832031 192.785156 169.34375 191.429688 170.910156 190.128906 C 172.515625 188.792969 174.160156 187.492188 175.785156 186.175781 C 177.0625 185.136719 178.285156 184.019531 179.621094 183.070312 C 182.601562 180.941406 185.4375 178.605469 188.640625 176.796875 C 191.003906 175.460938 193.253906 173.9375 195.636719 172.640625 C 197.628906 171.554688 199.5625 170.378906 201.609375 169.390625 C 203.742188 168.351562 205.761719 167.070312 207.886719 166.023438 C 212.070312 163.953125 216.28125 161.972656 220.480469 159.960938 C 221.453125 159.5 222.394531 158.972656 223.394531 158.578125 C 225.492188 157.738281 227.644531 157.039062 229.722656 156.160156 C 232.828125 154.84375 236.039062 153.804688 239.238281 152.757812 C 240.199219 152.390625 241.199219 152.09375 242.433594 151.785156 M 126.175781 222.28125 C 126.636719 222.28125 127.234375 222.460938 127.539062 222.242188 C 128.175781 221.789062 128.511719 222.242188 128.914062 222.480469 C 129.820312 223 130.578125 223.78125 131.644531 224.039062 C 131.847656 224.089844 132.058594 224.222656 132.203125 224.367188 C 133.195312 225.347656 134.480469 225.753906 135.730469 226.234375 C 138.210938 227.175781 140.828125 227.542969 143.433594 227.820312 C 145.078125 227.992188 146.789062 228.082031 148.441406 227.628906 C 148.921875 227.492188 149.394531 227.261719 149.882812 227.175781 C 151.664062 226.859375 153.210938 225.992188 154.710938 225.089844 C 155.816406 224.425781 156.769531 223.5 157.816406 222.742188 C 158.304688 222.386719 158.835938 222.078125 159.5 222.03125 C 160.71875 221.941406 161.929688 221.742188 163.140625 221.585938 C 163.730469 221.511719 164.324219 221.460938 164.902344 221.347656 C 166.046875 221.136719 167.179688 220.855469 168.332031 220.664062 C 169.902344 220.402344 171.46875 220.171875 173.042969 219.960938 C 174.882812 219.710938 176.726562 219.480469 178.5625 219.269531 C 180.121094 219.085938 181.6875 218.875 183.253906 218.816406 C 185.292969 218.75 187.3125 218.566406 189.339844 218.34375 C 190.425781 218.230469 191.523438 218.230469 192.621094 218.144531 C 194.859375 217.96875 197.121094 218.046875 199.378906 217.894531 C 203.097656 217.644531 206.828125 218 210.558594 217.671875 C 213.914062 217.382812 217.308594 217.605469 220.695312 217.449219 C 225.566406 217.230469 230.453125 217.34375 235.335938 217.410156 C 240.183594 217.480469 245.039062 217.152344 249.890625 217.613281 C 252.015625 217.816406 254.171875 217.480469 256.304688 217.824219 C 257.566406 218.027344 258.871094 217.902344 260.160156 218.046875 C 261.679688 218.21875 263.207031 218.296875 264.726562 218.539062 C 266.238281 218.777344 267.773438 218.96875 269.292969 219 C 271.640625 219.046875 273.976562 219.191406 276.3125 219.460938 C 277.457031 219.585938 278.609375 219.597656 279.726562 219.941406 C 280.003906 220.027344 280.265625 219.960938 280.207031 219.546875 C 280.121094 219 279.996094 218.449219 279.984375 217.902344 C 279.945312 216.660156 279.945312 215.421875 279.984375 214.179688 C 280.003906 213.496094 279.851562 212.9375 279.351562 212.457031 C 278.964844 212.074219 279.003906 211.679688 279.523438 211.371094 C 279.9375 211.128906 279.964844 210.832031 279.976562 210.4375 C 280.101562 205.472656 279.695312 200.492188 280.207031 195.527344 C 280.273438 194.902344 280.246094 194.285156 280.398438 193.632812 C 280.765625 192.09375 280.839844 190.484375 281.175781 188.9375 C 281.265625 188.542969 281.226562 188.417969 280.945312 188.3125 C 280.648438 188.195312 280.320312 188.121094 279.996094 188.070312 C 278.785156 187.90625 277.570312 187.753906 276.351562 187.601562 C 274.390625 187.359375 272.4375 187.050781 270.476562 186.925781 C 268.832031 186.820312 267.199219 186.617188 265.554688 186.464844 C 263.660156 186.28125 261.746094 186.195312 259.84375 186.222656 C 256.890625 186.273438 253.929688 185.953125 250.988281 186.425781 C 249.710938 186.636719 248.410156 186.753906 247.113281 186.898438 C 245.632812 187.0625 244.144531 187.214844 242.652344 187.367188 C 241.875 187.445312 241.085938 187.492188 240.316406 187.617188 C 239.164062 187.8125 238.027344 188.089844 236.875 188.292969 C 235.777344 188.484375 234.632812 188.476562 233.597656 188.800781 C 232.421875 189.175781 231.210938 189.207031 230.039062 189.445312 C 228.914062 189.675781 227.761719 189.734375 226.636719 189.9375 C 225.164062 190.207031 223.710938 190.554688 222.25 190.859375 C 221.355469 191.042969 220.445312 191.160156 219.570312 191.417969 C 219.019531 191.582031 218.578125 191.71875 218.125 191.246094 C 218.019531 191.128906 217.769531 191.074219 217.617188 191.109375 C 216.914062 191.285156 216.234375 191.503906 215.539062 191.699219 C 213.53125 192.273438 211.523438 192.863281 209.511719 193.417969 C 207.042969 194.09375 204.5625 194.746094 202.082031 195.402344 C 200.476562 195.824219 198.859375 196.238281 197.261719 196.679688 C 195.390625 197.199219 193.523438 197.757812 191.660156 198.308594 C 190.101562 198.769531 188.554688 199.230469 187.003906 199.703125 C 183.9375 200.625 180.863281 201.511719 177.804688 202.480469 C 174.449219 203.539062 171.09375 204.597656 167.777344 205.78125 C 165.046875 206.753906 162.355469 207.851562 159.691406 208.984375 C 156.738281 210.246094 153.949219 211.832031 151.210938 213.496094 C 150.402344 213.988281 149.558594 214.421875 148.816406 214.996094 C 147.988281 215.640625 146.808594 214.832031 146.105469 215.765625 C 145.453125 215.304688 144.585938 215.726562 143.902344 215.179688 C 143.171875 214.59375 142.347656 214.101562 141.5 213.699219 C 140.539062 213.238281 139.492188 212.949219 138.511719 212.503906 C 136.875 211.773438 135.269531 210.976562 133.636719 210.226562 C 131.097656 209.0625 128.550781 207.90625 126 206.773438 C 124.65625 206.175781 123.308594 205.609375 121.945312 205.070312 C 120.378906 204.453125 118.792969 203.894531 117.214844 203.308594 C 114.828125 202.425781 112.457031 201.5 110.0625 200.652344 C 107.761719 199.835938 105.445312 199.078125 103.121094 198.324219 C 100.660156 197.527344 98.207031 196.691406 95.707031 196.015625 C 93.371094 195.390625 91.042969 194.726562 88.6875 194.171875 C 87.996094 194.007812 87.101562 193.382812 86.410156 194.34375 C 86.351562 194.421875 86.113281 194.382812 85.96875 194.363281 C 85.160156 194.265625 84.34375 194.199219 83.546875 194.046875 C 81.863281 193.71875 80.199219 193.3125 78.527344 192.976562 C 77.515625 192.773438 76.488281 192.667969 75.46875 192.488281 C 73.882812 192.199219 72.304688 191.890625 70.730469 191.574219 C 69.691406 191.371094 68.660156 191.109375 67.625 190.9375 C 66.460938 190.734375 65.289062 190.574219 64.113281 190.417969 C 63.296875 190.3125 62.460938 190.320312 61.652344 190.167969 C 60.402344 189.917969 59.164062 189.695312 57.894531 189.714844 C 57.738281 189.714844 57.578125 189.746094 57.433594 189.714844 C 56.152344 189.425781 54.867188 189.234375 53.558594 189.253906 C 53.25 189.253906 52.914062 189.332031 52.636719 189.246094 C 51.136719 188.753906 49.546875 189.253906 48.058594 188.792969 C 43.40625 188.9375 38.742188 188.550781 34.089844 189.003906 C 31.886719 189.214844 29.65625 188.851562 27.445312 189.234375 C 26.40625 189.417969 25.339844 189.339844 24.28125 189.425781 C 22.292969 189.589844 20.300781 189.648438 18.320312 189.9375 C 16.957031 190.140625 15.5625 190.167969 14.214844 190.429688 C 12.265625 190.8125 10.332031 191.34375 8.398438 191.804688 C 7.496094 192.015625 7.476562 192.003906 7.484375 192.832031 C 7.515625 194.621094 7.503906 196.410156 7.679688 198.210938 C 7.949219 201.144531 7.515625 204.117188 7.917969 207.070312 C 8.140625 208.6875 7.976562 210.332031 8.121094 211.976562 C 8.3125 214.152344 8.324219 216.355469 8.621094 218.527344 C 8.792969 219.796875 8.832031 221.097656 8.851562 222.386719 C 8.859375 222.914062 9.042969 223.058594 9.503906 222.980469 C 9.6875 222.953125 9.859375 222.90625 10.035156 222.867188 C 11.351562 222.597656 12.667969 222.289062 14.003906 222.066406 C 15.167969 221.867188 16.359375 221.789062 17.53125 221.585938 C 19.121094 221.316406 20.675781 220.921875 22.261719 220.683594 C 24.136719 220.394531 26.023438 220.191406 27.898438 219.980469 C 29.453125 219.808594 31.023438 219.585938 32.589844 219.527344 C 34.394531 219.460938 36.183594 219.257812 37.972656 219.066406 C 39.25 218.933594 40.539062 218.960938 41.828125 218.855469 C 44.578125 218.613281 47.335938 218.894531 50.105469 218.625 C 53.230469 218.324219 56.382812 218.644531 59.539062 218.402344 C 63.710938 218.085938 67.910156 218.449219 72.113281 218.179688 C 74.929688 218 77.777344 217.949219 80.621094 218.324219 C 82.46875 218.566406 84.34375 218.335938 86.226562 218.539062 C 88.246094 218.75 90.285156 218.769531 92.3125 219.039062 C 93.621094 219.210938 94.957031 219.210938 96.285156 219.289062 C 96.4375 219.296875 96.601562 219.257812 96.746094 219.296875 C 98.101562 219.59375 99.464844 219.777344 100.851562 219.757812 C 101.042969 219.757812 101.292969 219.683594 101.425781 219.769531 C 101.957031 220.125 102.535156 219.933594 103.082031 219.988281 C 103.628906 220.058594 104.175781 220.171875 104.726562 220.210938 C 105.976562 220.308594 107.234375 220.257812 108.457031 220.492188 C 109.28125 220.644531 110.136719 220.507812 110.90625 220.730469 C 111.550781 220.914062 112.175781 220.855469 112.800781 220.921875 C 113.464844 220.992188 114.128906 221.097656 114.800781 221.152344 C 115.886719 221.25 116.992188 221.230469 118.070312 221.414062 C 119.433594 221.636719 120.808594 221.742188 122.175781 221.894531 C 123.308594 222.019531 124.433594 222.078125 125.570312 222.097656 C 125.695312 222.058594 125.820312 222.203125 126.175781 222.28125 M 143.960938 145.847656 C 143.960938 145.65625 144.007812 145.445312 143.953125 145.273438 C 143.527344 143.859375 143.097656 142.453125 142.644531 141.046875 C 141.414062 137.230469 140.152344 133.410156 138.617188 129.699219 C 137.511719 127.011719 136.519531 124.28125 135.308594 121.644531 C 134.203125 119.230469 132.914062 116.894531 131.625 114.566406 C 130.289062 112.160156 128.78125 109.859375 127.472656 107.445312 C 125.675781 104.148438 123.511719 101.085938 121.425781 97.980469 C 120.128906 96.046875 118.65625 94.238281 117.253906 92.382812 C 115.53125 90.109375 113.820312 87.820312 112.070312 85.582031 C 110.984375 84.195312 109.832031 82.859375 108.707031 81.5 C 107.503906 80.058594 106.300781 78.625 105.089844 77.183594 C 104.917969 76.980469 104.6875 76.816406 104.523438 76.605469 C 103.035156 74.613281 101.160156 73.027344 99.214844 71.515625 C 98.8125 71.199219 98.628906 71.101562 98.621094 71.738281 C 98.621094 71.902344 98.429688 72.054688 98.410156 72.226562 C 98.140625 74.074219 97.199219 75.679688 96.515625 77.375 C 96.023438 78.605469 95.332031 79.761719 94.667969 80.914062 C 93.449219 83.050781 92.246094 85.203125 90.898438 87.261719 C 88.738281 90.574219 86.648438 93.929688 84.21875 97.058594 C 82.863281 98.808594 81.59375 100.636719 80.21875 102.375 C 78.988281 103.933594 77.613281 105.398438 76.382812 106.957031 C 75.296875 108.339844 74.257812 109.785156 73.296875 111.253906 C 71.890625 113.410156 70.613281 115.652344 69.210938 117.816406 C 67.449219 120.519531 65.835938 123.300781 64.382812 126.175781 C 63.144531 128.640625 62.007812 131.160156 60.84375 133.660156 C 60.757812 133.84375 60.796875 134.074219 60.789062 134.285156 C 61 134.265625 61.210938 134.277344 61.414062 134.238281 C 62.296875 134.046875 63.191406 133.863281 64.074219 133.640625 C 65.125 133.382812 66.191406 133.285156 67.25 133.152344 C 68.574219 132.976562 69.902344 132.707031 71.25 132.726562 C 72.421875 132.746094 73.585938 132.863281 74.757812 132.949219 C 75.535156 133.007812 76.324219 133.082031 77.101562 133.1875 C 77.601562 133.257812 78.113281 133.363281 78.601562 133.496094 C 80.441406 133.996094 82.296875 134.449219 84.027344 135.277344 C 85.902344 136.171875 87.824219 137 89.621094 138.046875 C 91.253906 139.007812 92.824219 140.105469 94.351562 141.269531 C 96.496094 142.90625 98.648438 144.523438 100.570312 146.417969 C 102.753906 148.5625 104.9375 150.707031 106.839844 153.113281 C 108.121094 154.738281 109.53125 156.257812 110.851562 157.855469 C 112.136719 159.402344 113.367188 161 114.636719 162.558594 C 115.398438 163.492188 116.195312 164.386719 116.925781 165.328125 C 118.347656 167.175781 119.722656 169.050781 121.128906 170.910156 C 122.597656 172.863281 124.164062 174.746094 125.539062 176.757812 C 127.800781 180.066406 129.980469 183.433594 132.097656 186.832031 C 133.664062 189.339844 135.019531 191.988281 136.585938 194.496094 C 138.355469 197.316406 139.894531 200.25 141.421875 203.195312 C 142.433594 205.136719 143.691406 206.964844 144.230469 209.128906 C 144.257812 209.253906 144.441406 209.351562 144.546875 209.457031 C 144.585938 209.320312 144.671875 209.195312 144.671875 209.0625 C 144.558594 205.917969 144.808594 202.769531 144.492188 199.613281 C 144.210938 196.757812 144.605469 193.863281 144.230469 190.984375 C 144.046875 189.5625 144.230469 188.109375 144.027344 186.65625 C 143.757812 184.664062 143.769531 182.617188 143.757812 180.597656 C 143.730469 175.171875 143.722656 169.746094 143.757812 164.308594 C 143.796875 158.488281 143.902344 152.667969 143.992188 146.839844 C 143.972656 146.570312 144.039062 146.273438 143.960938 145.847656 M 74.671875 106.542969 C 74.777344 106.359375 74.863281 106.148438 74.996094 105.984375 C 76.632812 104.023438 78.316406 102.097656 79.910156 100.105469 C 80.996094 98.757812 82.007812 97.335938 83.035156 95.941406 C 83.902344 94.757812 84.726562 93.535156 85.601562 92.351562 C 86.113281 91.667969 86.101562 91.496094 85.332031 91.074219 C 85.179688 90.988281 85.015625 90.910156 84.851562 90.84375 C 82.996094 89.984375 81.140625 89.140625 79.285156 88.285156 C 77.660156 87.53125 76.035156 86.78125 74.402344 86.042969 C 73.585938 85.667969 72.835938 85.667969 72.09375 86.300781 C 71.605469 86.726562 70.980469 86.984375 70.449219 87.359375 C 68.921875 88.445312 67.394531 89.542969 65.902344 90.679688 C 64.59375 91.679688 63.414062 92.84375 62.066406 93.777344 C 59.34375 95.660156 56.933594 97.902344 54.460938 100.066406 C 52.171875 102.070312 50.046875 104.253906 47.886719 106.378906 C 47.125 107.121094 46.492188 107.996094 45.730469 108.734375 C 43.15625 111.273438 40.53125 113.765625 37.953125 116.316406 C 36.925781 117.335938 35.972656 118.441406 34.984375 119.5 C 33.859375 120.703125 32.742188 121.90625 31.609375 123.109375 C 30.023438 124.78125 28.425781 126.4375 26.847656 128.109375 C 25.878906 129.140625 24.90625 130.167969 23.972656 131.226562 C 22.457031 132.949219 20.9375 134.691406 19.457031 136.449219 C 18.484375 137.59375 17.675781 138.855469 17.023438 140.203125 C 16.4375 141.394531 15.878906 142.597656 15.351562 143.808594 C 15.015625 144.597656 14.726562 145.417969 14.476562 146.234375 C 14.417969 146.417969 14.207031 146.878906 14.78125 146.90625 C 16.371094 146.984375 17.9375 147.292969 19.496094 147.589844 C 21.050781 147.886719 22.648438 147.976562 24.195312 148.332031 C 25.792969 148.695312 27.4375 148.648438 29.03125 148.996094 C 29.503906 149.101562 30.003906 149.082031 30.492188 149.109375 C 31.011719 149.140625 31.695312 149.390625 32.023438 149.148438 C 32.714844 148.648438 32.753906 149.628906 33.300781 149.515625 C 33.925781 149.390625 34.628906 149.601562 35.28125 149.726562 C 36.320312 149.929688 37.339844 150.207031 38.367188 150.390625 C 39.808594 150.660156 41.28125 150.8125 42.710938 151.128906 C 44.15625 151.4375 45.558594 151.996094 47.011719 152.238281 C 49.460938 152.632812 51.789062 153.457031 54.191406 154.015625 C 56.335938 154.515625 58.441406 155.160156 60.558594 155.757812 C 62.875 156.421875 65.210938 157.054688 67.507812 157.789062 C 71.160156 158.960938 74.816406 160.117188 78.390625 161.539062 C 80.757812 162.480469 83.121094 163.40625 85.410156 164.53125 C 88.601562 166.097656 91.753906 167.746094 94.910156 169.371094 C 96.3125 170.089844 97.726562 170.804688 99.109375 171.582031 C 101.976562 173.1875 104.820312 174.816406 107.667969 176.46875 C 109.011719 177.25 110.351562 178.058594 111.648438 178.921875 C 113.898438 180.421875 116.136719 181.960938 118.339844 183.53125 C 119.492188 184.347656 120.589844 185.253906 121.664062 186.15625 C 122.914062 187.195312 124.117188 188.292969 125.339844 189.359375 C 127.183594 190.976562 129.097656 192.535156 130.875 194.226562 C 133.761719 196.980469 136.519531 199.863281 139.117188 202.894531 C 139.210938 203.011719 139.386719 203.058594 139.519531 203.136719 C 139.511719 202.953125 139.578125 202.710938 139.480469 202.597656 C 138.769531 201.75 138.375 200.730469 137.835938 199.789062 C 136.511719 197.460938 135.117188 195.171875 133.742188 192.882812 C 132.789062 191.292969 131.835938 189.707031 130.867188 188.148438 C 129.75 186.359375 128.539062 184.628906 127.472656 182.808594 C 125.875 180.085938 123.984375 177.574219 122.15625 175.015625 C 121.148438 173.613281 120.136719 172.199219 119.089844 170.824219 C 117.867188 169.226562 116.597656 167.65625 115.339844 166.097656 C 114.53125 165.109375 113.6875 164.15625 112.878906 163.164062 C 111.714844 161.710938 110.589844 160.230469 109.417969 158.789062 C 108.589844 157.769531 107.726562 156.777344 106.871094 155.765625 C 105.53125 154.191406 104.234375 152.574219 102.832031 151.054688 C 101.359375 149.464844 99.773438 147.976562 98.246094 146.4375 C 98.054688 146.242188 97.878906 146.03125 97.667969 145.867188 C 96.082031 144.65625 94.515625 143.40625 92.878906 142.261719 C 91.0625 140.980469 89.246094 139.671875 87.304688 138.605469 C 85.457031 137.585938 83.476562 136.796875 81.515625 136.035156 C 80.382812 135.59375 79.160156 135.34375 77.960938 135.09375 C 76.554688 134.804688 75.132812 134.46875 73.71875 134.421875 C 71.699219 134.351562 69.671875 134.476562 67.660156 134.640625 C 66.46875 134.738281 65.289062 135.054688 64.113281 135.324219 C 62.914062 135.605469 61.738281 135.949219 60.546875 136.238281 C 60.046875 136.363281 59.527344 136.429688 59.019531 136.46875 C 58.605469 136.5 58.394531 136.238281 58.433594 135.824219 C 58.453125 135.574219 58.472656 135.296875 58.566406 135.066406 C 59.566406 132.726562 60.558594 130.390625 61.613281 128.070312 C 62.113281 126.957031 62.738281 125.898438 63.316406 124.820312 C 64.25 123.070312 65.144531 121.300781 66.144531 119.597656 C 66.988281 118.152344 68.035156 116.824219 68.882812 115.375 C 70.605469 112.34375 72.527344 109.464844 74.671875 106.542969 M 142.222656 211.34375 C 142.777344 211.628906 143.347656 211.929688 143.902344 212.21875 C 143.617188 211.582031 143.433594 210.859375 143.019531 210.3125 C 141.472656 208.226562 139.894531 206.15625 138.261719 204.144531 C 137.316406 202.992188 136.28125 201.914062 135.222656 200.867188 C 132.320312 197.988281 129.375 195.152344 126.445312 192.3125 C 125.789062 191.679688 125.109375 191.082031 124.40625 190.503906 C 122.789062 189.175781 121.175781 187.851562 119.53125 186.5625 C 118.078125 185.417969 116.628906 184.261719 115.097656 183.214844 C 113.03125 181.78125 110.925781 180.394531 108.792969 179.085938 C 106.261719 177.539062 103.6875 176.074219 101.121094 174.601562 C 99.964844 173.9375 98.765625 173.371094 97.589844 172.738281 C 94.898438 171.273438 92.246094 169.734375 89.535156 168.332031 C 87.148438 167.101562 84.707031 165.964844 82.257812 164.859375 C 80.363281 164.011719 78.441406 163.214844 76.488281 162.511719 C 73.785156 161.539062 71.054688 160.652344 68.335938 159.75 C 66.59375 159.171875 64.855469 158.585938 63.09375 158.085938 C 60.941406 157.46875 58.757812 156.949219 56.597656 156.375 C 54.953125 155.941406 53.328125 155.480469 51.683594 155.054688 C 49.683594 154.546875 47.675781 154.046875 45.664062 153.582031 C 43.644531 153.121094 41.617188 152.699219 39.589844 152.257812 C 38.558594 152.035156 37.53125 151.792969 36.484375 151.613281 C 35.320312 151.410156 34.144531 151.265625 32.972656 151.09375 C 32.492188 151.023438 32.089844 151.148438 31.773438 151.5625 C 31.359375 152.101562 30.933594 152.632812 30.453125 153.113281 C 28.300781 155.285156 26.128906 157.449219 23.964844 159.617188 C 23.742188 159.835938 23.523438 160.046875 23.3125 160.277344 C 22.511719 161.144531 21.753906 162.058594 20.917969 162.886719 C 19.695312 164.097656 18.40625 165.253906 17.167969 166.4375 C 17.082031 166.511719 17.070312 166.695312 17.070312 166.832031 C 17.070312 166.859375 17.261719 166.898438 17.371094 166.917969 C 18.425781 167.070312 19.503906 167.167969 20.542969 167.398438 C 22.101562 167.734375 23.628906 168.207031 25.175781 168.53125 C 27.570312 169.042969 29.984375 169.445312 32.386719 169.945312 C 34.453125 170.378906 36.503906 170.851562 38.550781 171.34375 C 40.203125 171.738281 41.855469 172.148438 43.5 172.59375 C 45.664062 173.167969 47.816406 173.777344 49.972656 174.363281 C 52.097656 174.949219 54.222656 175.527344 56.335938 176.125 C 57.757812 176.527344 59.164062 176.96875 60.578125 177.382812 C 62.652344 177.980469 64.75 178.539062 66.816406 179.171875 C 68.5 179.691406 70.140625 180.316406 71.804688 180.875 C 74.804688 181.875 77.804688 182.839844 80.804688 183.859375 C 82.804688 184.539062 84.765625 185.339844 86.785156 185.984375 C 89.929688 186.992188 92.949219 188.3125 96.015625 189.535156 C 97.449219 190.101562 98.839844 190.765625 100.265625 191.34375 C 102.753906 192.34375 105.273438 193.285156 107.753906 194.304688 C 109.9375 195.199219 112.097656 196.152344 114.273438 197.09375 C 117.003906 198.277344 119.734375 199.453125 122.445312 200.664062 C 123.722656 201.230469 124.914062 202.03125 126.222656 202.492188 C 128.480469 203.28125 130.472656 204.589844 132.578125 205.675781 C 134.722656 206.78125 136.789062 208.050781 138.875 209.273438 C 139.941406 209.890625 141.019531 210.5625 142.222656 211.34375 M 174.417969 196.804688 C 172.9375 197.816406 171.449219 198.816406 169.988281 199.855469 C 168.332031 201.027344 166.710938 202.242188 165.074219 203.433594 C 163.824219 204.347656 162.574219 205.261719 161.335938 206.183594 C 161.238281 206.261719 161.21875 206.445312 161.160156 206.570312 C 161.265625 206.542969 161.382812 206.511719 161.488281 206.472656 C 164.335938 205.386719 167.152344 204.234375 170.015625 203.214844 C 172.421875 202.355469 174.863281 201.636719 177.304688 200.875 C 180.082031 200.007812 182.871094 199.164062 185.660156 198.316406 C 187.167969 197.855469 188.679688 197.355469 190.195312 196.929688 C 192.351562 196.335938 194.53125 195.816406 196.695312 195.21875 C 198.742188 194.652344 200.773438 194.007812 202.820312 193.4375 C 205.742188 192.640625 208.683594 191.890625 211.617188 191.101562 C 213.328125 190.648438 215.03125 190.167969 216.734375 189.707031 C 218.472656 189.234375 220.210938 188.746094 221.972656 188.320312 C 223.425781 187.964844 224.914062 187.78125 226.347656 187.359375 C 228.894531 186.617188 231.492188 186.117188 234.066406 185.511719 C 235.914062 185.078125 237.777344 184.753906 239.625 184.320312 C 241.546875 183.867188 243.5 183.609375 245.429688 183.214844 C 246.554688 182.980469 247.710938 182.925781 248.835938 182.722656 C 250.421875 182.445312 251.980469 182.078125 253.566406 181.808594 C 255.210938 181.53125 256.851562 181.316406 258.507812 181.105469 C 259.910156 180.921875 261.324219 180.761719 262.726562 180.644531 C 264.238281 180.527344 265.765625 180.394531 267.273438 180.421875 C 270.074219 180.480469 272.871094 180.210938 275.667969 180.605469 C 277.035156 180.796875 278.457031 180.644531 279.851562 180.636719 C 279.957031 180.636719 280.0625 180.597656 280.167969 180.566406 C 280.089844 180.460938 280.023438 180.335938 279.9375 180.242188 C 279.535156 179.828125 279.0625 179.460938 278.714844 179 C 277.292969 177.074219 275.640625 175.371094 273.792969 173.851562 C 273.332031 173.476562 272.871094 173.09375 272.398438 172.726562 C 271.410156 171.949219 270.398438 171.1875 269.417969 170.390625 C 269.003906 170.054688 268.699219 169.570312 268.253906 169.292969 C 268.042969 169.160156 267.648438 168.65625 267.3125 169.234375 C 266.417969 169.234375 265.476562 169.042969 264.652344 169.285156 C 263.390625 169.640625 262.132812 169.359375 260.871094 169.660156 C 259.601562 169.957031 258.21875 169.753906 256.921875 169.976562 C 256.09375 170.121094 255.277344 170.089844 254.460938 170.179688 C 252.804688 170.371094 251.171875 170.660156 249.515625 170.851562 C 247.882812 171.042969 246.238281 171.167969 244.59375 171.324219 C 243.894531 171.390625 243.179688 171.449219 242.480469 171.5625 C 241.144531 171.773438 239.808594 172.035156 238.46875 172.246094 C 237.335938 172.429688 236.191406 172.515625 235.066406 172.726562 C 233.632812 172.996094 232.222656 173.332031 230.796875 173.652344 C 229.519531 173.929688 228.230469 174.179688 226.960938 174.496094 C 225.386719 174.882812 223.816406 175.316406 222.25 175.746094 C 219.855469 176.410156 217.445312 177.027344 215.078125 177.789062 C 209.714844 179.5 204.378906 181.261719 199.148438 183.375 C 196.523438 184.445312 193.898438 185.503906 191.351562 186.707031 C 188.359375 188.121094 185.484375 189.753906 182.574219 191.332031 C 181.457031 191.9375 180.371094 192.601562 179.324219 193.3125 C 177.699219 194.410156 176.121094 195.566406 174.417969 196.804688 M 20.617188 182.730469 C 21.714844 182.808594 22.800781 182.886719 23.898438 182.964844 C 25.070312 183.050781 26.234375 183.011719 27.40625 183.136719 C 29.308594 183.339844 31.222656 183.445312 33.136719 183.625 C 34.550781 183.761719 35.953125 183.90625 37.359375 184.109375 C 38.914062 184.328125 40.480469 184.433594 42.050781 184.589844 C 42.789062 184.664062 43.539062 184.714844 44.28125 184.828125 C 45.691406 185.039062 47.105469 185.320312 48.53125 185.511719 C 49.460938 185.636719 50.433594 185.570312 51.328125 185.792969 C 52.011719 185.953125 52.691406 185.839844 53.328125 186.011719 C 54.875 186.4375 56.488281 186.339844 58.046875 186.667969 C 58.960938 186.859375 59.921875 186.832031 60.855469 186.925781 C 61.480469 186.992188 62.105469 187.070312 62.730469 187.175781 C 64 187.386719 65.257812 187.636719 66.519531 187.851562 C 67.574219 188.023438 68.644531 188.136719 69.691406 188.332031 C 71.125 188.601562 72.535156 188.9375 73.960938 189.246094 C 74.921875 189.457031 75.871094 189.675781 76.835938 189.878906 C 78.363281 190.214844 79.890625 190.554688 81.421875 190.859375 C 82.707031 191.121094 84.027344 191.292969 85.292969 191.621094 C 88.132812 192.34375 90.949219 193.121094 93.765625 193.902344 C 96.410156 194.632812 99.042969 195.363281 101.667969 196.140625 C 103.457031 196.671875 105.234375 197.269531 107.003906 197.855469 C 109.523438 198.691406 112.050781 199.507812 114.542969 200.421875 C 116.695312 201.210938 118.773438 202.210938 120.933594 202.945312 C 123.894531 203.953125 126.683594 205.347656 129.539062 206.597656 C 131.320312 207.378906 133 208.339844 134.742188 209.207031 C 135.058594 209.359375 135.433594 209.410156 135.789062 209.476562 C 135.855469 209.484375 135.953125 209.390625 136.039062 209.351562 C 135.972656 209.320312 135.90625 209.292969 135.847656 209.253906 C 135.085938 208.851562 134.328125 208.4375 133.558594 208.03125 C 131.269531 206.820312 128.992188 205.597656 126.683594 204.425781 C 125.214844 203.675781 123.753906 202.90625 122.214844 202.300781 C 119.578125 201.261719 117.050781 199.992188 114.4375 198.894531 C 112.589844 198.125 110.78125 197.230469 108.925781 196.46875 C 106.675781 195.546875 104.390625 194.707031 102.128906 193.796875 C 100.765625 193.246094 99.4375 192.621094 98.070312 192.082031 C 95.179688 190.9375 92.273438 189.8125 89.351562 188.707031 C 86.871094 187.773438 84.382812 186.859375 81.871094 185.992188 C 77.363281 184.433594 72.84375 182.894531 68.316406 181.394531 C 66.027344 180.636719 63.71875 179.941406 61.414062 179.25 C 59.519531 178.683594 57.605469 178.164062 55.691406 177.613281 C 53.789062 177.074219 51.886719 176.5 49.972656 176 C 48.011719 175.488281 46.011719 175.113281 44.058594 174.546875 C 40.953125 173.652344 37.839844 172.832031 34.664062 172.257812 C 32.523438 171.863281 30.398438 171.351562 28.261719 170.871094 C 26.320312 170.429688 24.386719 169.929688 22.445312 169.496094 C 22.128906 169.425781 21.601562 169.484375 21.445312 169.695312 C 20.15625 171.359375 18.964844 173.082031 17.695312 174.757812 C 16.398438 176.480469 15.042969 178.164062 13.714844 179.855469 C 13.253906 180.441406 12.765625 181 12.359375 181.625 C 12.109375 182.011719 11.332031 182.335938 11.707031 182.789062 C 11.9375 183.078125 12.726562 182.972656 13.253906 182.953125 C 15.640625 182.894531 18.011719 182.808594 20.617188 182.730469 M 47.816406 223.675781 C 47.941406 223.597656 48.058594 223.464844 48.183594 223.453125 C 50.058594 223.289062 51.921875 223.117188 53.796875 222.992188 C 54.972656 222.914062 56.132812 223.011719 57.308594 222.78125 C 58.414062 222.566406 59.558594 222.75 60.703125 222.558594 C 62 222.347656 63.34375 222.511719 64.671875 222.308594 C 65.980469 222.105469 67.304688 222.316406 68.644531 222.085938 C 70.054688 221.847656 71.515625 222.078125 72.960938 221.847656 C 74.371094 221.617188 75.835938 221.78125 77.277344 221.636719 C 79.476562 221.414062 81.699219 221.460938 83.917969 221.394531 C 88.5625 221.25 93.21875 221.355469 97.871094 221.347656 C 98.1875 221.347656 98.503906 221.261719 98.832031 221.222656 C 98.484375 221.105469 98.148438 220.992188 97.804688 220.894531 C 97.660156 220.855469 97.496094 220.894531 97.339844 220.886719 C 96.398438 220.828125 95.464844 220.796875 94.523438 220.710938 C 92.582031 220.527344 90.621094 220.421875 88.679688 220.203125 C 87.667969 220.085938 86.648438 220.125 85.632812 220.007812 C 83.863281 219.808594 82.054688 219.789062 80.265625 219.777344 C 76.152344 219.75 72.046875 219.597656 67.921875 219.921875 C 64.019531 220.230469 60.085938 219.808594 56.164062 220.164062 C 53 220.453125 49.808594 220.144531 46.617188 220.375 C 43.28125 220.605469 39.914062 220.453125 36.578125 220.886719 C 35.195312 221.066406 33.78125 221.058594 32.378906 221.136719 C 32.300781 221.136719 32.222656 221.125 32.148438 221.136719 C 31.050781 221.289062 29.953125 221.472656 28.847656 221.585938 C 27.839844 221.703125 26.820312 221.742188 25.8125 221.828125 C 25.109375 221.886719 24.398438 221.953125 23.695312 222.058594 C 22.320312 222.269531 20.945312 222.519531 19.570312 222.75 C 18.511719 222.925781 17.457031 223.050781 16.398438 223.242188 C 15.320312 223.433594 14.265625 223.695312 13.1875 223.914062 C 12.109375 224.136719 11.023438 224.289062 9.964844 224.558594 C 8.234375 225.003906 7.234375 224.269531 7.226562 222.480469 C 7.226562 221.867188 7.234375 221.242188 7.214844 220.625 C 7.207031 220.480469 7.082031 220.335938 7.003906 220.203125 C 6.910156 220.328125 6.804688 220.453125 6.726562 220.597656 C 6.417969 221.164062 6.128906 221.742188 5.832031 222.316406 C 4.785156 224.328125 3.746094 226.339844 2.6875 228.339844 C 2.457031 228.78125 2.5625 229.082031 3.054688 229.03125 C 4.160156 228.917969 5.246094 228.726562 6.351562 228.582031 C 7.714844 228.40625 9.089844 228.3125 10.457031 228.101562 C 12.234375 227.832031 13.996094 227.445312 15.773438 227.195312 C 17.253906 226.984375 18.746094 226.878906 20.226562 226.714844 C 20.925781 226.636719 21.65625 226.648438 22.332031 226.464844 C 23.417969 226.15625 24.53125 226.203125 25.636719 226.042969 C 26.675781 225.878906 27.742188 225.90625 28.792969 225.78125 C 30.445312 225.578125 32.078125 225.300781 33.734375 225.097656 C 34.820312 224.972656 35.914062 224.933594 37 224.859375 C 37.117188 224.847656 37.242188 224.878906 37.339844 224.839844 C 38.25 224.484375 39.230469 224.550781 40.175781 224.40625 C 41.175781 224.261719 42.210938 224.320312 43.210938 224.136719 C 44.683594 223.855469 46.125 223.65625 47.816406 223.675781 M 17.832031 188.3125 C 19.261719 188.023438 20.734375 188.175781 22.175781 187.878906 C 23.273438 187.648438 24.417969 187.878906 25.570312 187.65625 C 26.9375 187.398438 28.359375 187.4375 29.761719 187.386719 C 33.328125 187.253906 36.894531 187.570312 40.472656 187.1875 C 42.347656 186.984375 44.261719 187.128906 46.164062 187.15625 C 47.261719 187.175781 48.347656 187.3125 49.433594 187.367188 C 49.546875 187.378906 49.664062 187.28125 49.78125 187.234375 C 49.671875 187.207031 49.578125 187.167969 49.460938 187.148438 C 48.40625 186.992188 47.347656 186.753906 46.289062 186.707031 C 44.90625 186.636719 43.550781 186.453125 42.183594 186.234375 C 40.433594 185.953125 38.664062 185.742188 36.894531 185.53125 C 35.378906 185.347656 33.859375 185.148438 32.328125 185.078125 C 30.558594 185.003906 28.820312 184.800781 27.0625 184.617188 C 25.472656 184.445312 23.878906 184.394531 22.28125 184.378906 C 19.484375 184.347656 16.695312 184.394531 13.898438 184.539062 C 12.542969 184.617188 11.503906 184.773438 10.792969 186.042969 C 10.042969 187.367188 9.167969 188.621094 8.351562 189.910156 C 8.3125 189.976562 8.304688 190.070312 8.285156 190.148438 C 8.359375 190.160156 8.457031 190.195312 8.503906 190.167969 C 9.5625 189.523438 10.8125 189.550781 11.964844 189.285156 C 13.800781 188.832031 15.707031 188.621094 17.832031 188.3125 M 257.535156 184.589844 C 260.027344 184.664062 262.507812 184.742188 264.996094 184.820312 C 265.113281 184.820312 265.238281 184.789062 265.34375 184.820312 C 266.648438 185.203125 268.003906 185.089844 269.332031 185.273438 C 270.378906 185.40625 271.4375 185.398438 272.484375 185.53125 C 273.984375 185.722656 275.464844 186.0625 276.964844 186.195312 C 278.148438 186.300781 279.332031 186.386719 280.496094 186.675781 C 280.621094 186.707031 280.765625 186.609375 280.910156 186.570312 C 280.851562 186.4375 280.820312 186.28125 280.734375 186.175781 C 280.535156 185.945312 280.265625 185.761719 280.089844 185.511719 C 279.417969 184.558594 278.785156 183.578125 278.101562 182.617188 C 277.984375 182.453125 277.746094 182.300781 277.554688 182.28125 C 276.582031 182.175781 275.601562 182.039062 274.628906 182.050781 C 270.984375 182.085938 267.332031 181.867188 263.6875 182.261719 C 262.5625 182.386719 261.410156 182.320312 260.304688 182.539062 C 259.632812 182.675781 258.96875 182.65625 258.304688 182.742188 C 256.957031 182.933594 255.632812 183.214844 254.296875 183.425781 C 253.085938 183.609375 251.863281 183.714844 250.652344 183.90625 C 249.316406 184.109375 247.980469 184.378906 246.644531 184.589844 C 246.019531 184.695312 245.363281 184.65625 244.769531 184.839844 C 242.875 185.425781 240.882812 185.492188 238.96875 185.984375 C 238.085938 186.203125 237.183594 186.347656 236.296875 186.550781 C 236.125 186.589844 235.980469 186.707031 235.816406 186.792969 C 235.980469 186.839844 236.152344 186.925781 236.308594 186.917969 C 236.855469 186.859375 237.421875 186.832031 237.953125 186.675781 C 239.230469 186.3125 240.527344 186.089844 241.84375 185.984375 C 242.585938 185.925781 243.324219 185.839844 244.066406 185.734375 C 244.941406 185.609375 245.796875 185.417969 246.671875 185.300781 C 247.527344 185.183594 248.390625 185.195312 249.25 185.050781 C 250.765625 184.789062 252.285156 184.617188 253.824219 184.597656 C 254.988281 184.578125 256.140625 184.589844 257.535156 184.589844 M 265.910156 220.183594 C 265.132812 220.105469 264.351562 220.019531 263.5625 219.953125 C 262.476562 219.863281 261.34375 219.941406 260.296875 219.683594 C 258.738281 219.289062 257.152344 219.460938 255.59375 219.316406 C 252.390625 219.019531 249.152344 219.09375 245.929688 219.019531 C 245.777344 219.019531 245.566406 219.085938 245.480469 219.007812 C 244.882812 218.539062 244.210938 218.902344 243.585938 218.796875 C 243.480469 218.777344 243.355469 218.914062 243.238281 218.96875 C 243.363281 219.066406 243.480469 219.230469 243.605469 219.238281 C 244.664062 219.289062 245.71875 219.382812 246.769531 219.433594 C 249.191406 219.546875 251.605469 219.664062 254.015625 219.914062 C 255.496094 220.066406 256.988281 220.164062 258.46875 220.394531 C 259.9375 220.625 261.4375 220.722656 262.917969 220.875 C 263.582031 220.941406 264.257812 221 264.917969 221.117188 C 266.140625 221.328125 267.351562 221.617188 268.582031 221.796875 C 270.023438 222 271.496094 222.03125 272.917969 222.316406 C 273.589844 222.453125 274.273438 222.386719 274.917969 222.53125 C 276.589844 222.894531 278.292969 223.011719 279.984375 223.203125 C 280.253906 223.230469 280.535156 223.164062 280.792969 223.222656 C 282.1875 223.519531 283.589844 223.695312 285.023438 223.675781 C 285.582031 223.664062 285.167969 223.453125 285.089844 223.308594 C 284.753906 222.675781 284.398438 222.046875 284.101562 221.394531 C 283.398438 219.863281 282.339844 218.5 282.023438 216.785156 C 282.003906 216.671875 281.8125 216.585938 281.707031 216.480469 C 281.667969 216.585938 281.609375 216.679688 281.609375 216.785156 C 281.601562 217.054688 281.589844 217.335938 281.609375 217.605469 C 281.675781 218.5 281.78125 219.402344 281.832031 220.296875 C 281.859375 220.769531 281.300781 221.566406 280.910156 221.578125 C 279.753906 221.597656 278.496094 221.828125 277.476562 221.441406 C 275.929688 220.855469 274.351562 220.953125 272.792969 220.691406 C 271.457031 220.472656 270.074219 220.757812 268.707031 220.441406 C 267.878906 220.25 267.007812 220.257812 265.910156 220.183594 M 180.582031 221.117188 C 180.863281 221.039062 181.128906 220.921875 181.417969 220.894531 C 182.351562 220.796875 183.285156 220.710938 184.226562 220.664062 C 185.324219 220.605469 186.398438 220.625 187.503906 220.472656 C 188.820312 220.289062 190.175781 220.441406 191.503906 220.222656 C 192.214844 220.105469 192.976562 220.269531 193.707031 220.183594 C 194.339844 220.105469 194.996094 220.058594 195.628906 220.007812 C 198.070312 219.835938 200.511719 219.808594 202.957031 219.738281 C 203.53125 219.722656 204.117188 219.738281 204.695312 219.730469 C 204.761719 219.730469 204.867188 219.585938 204.867188 219.507812 C 204.867188 219.433594 204.773438 219.296875 204.695312 219.289062 C 204.464844 219.257812 204.234375 219.269531 204.003906 219.277344 C 201.984375 219.355469 199.964844 219.421875 197.945312 219.519531 C 196.464844 219.585938 194.996094 219.441406 193.503906 219.703125 C 192.214844 219.933594 190.859375 219.703125 189.542969 219.960938 C 188.667969 220.132812 187.746094 220.097656 186.851562 220.152344 C 184.707031 220.296875 182.5625 220.421875 180.429688 220.671875 C 178.832031 220.855469 177.226562 220.980469 175.632812 221.152344 C 175.527344 221.164062 175.4375 221.308594 175.34375 221.394531 C 175.449219 221.472656 175.574219 221.617188 175.660156 221.597656 C 177.207031 221.261719 178.773438 221.105469 180.582031 221.117188 Z M 180.582031 221.117188 " fill-opacity="1" fill-rule="nonzero"/></g><path fill="#000000" d="M 159.765625 212.96875 C 162.324219 212.113281 164.757812 211.253906 167.199219 210.410156 C 169.371094 209.660156 171.535156 208.871094 173.726562 208.214844 C 175.910156 207.5625 178.121094 207.03125 180.324219 206.453125 C 182.628906 205.847656 184.9375 205.234375 187.253906 204.664062 C 188.773438 204.289062 190.3125 204.019531 191.839844 203.65625 C 194.140625 203.105469 196.457031 202.683594 198.734375 202.058594 C 200.386719 201.605469 202.117188 201.433594 203.800781 201.097656 C 205.542969 200.742188 207.273438 200.296875 209.023438 199.953125 C 210.425781 199.671875 211.847656 199.488281 213.261719 199.238281 C 214.875 198.953125 216.492188 198.59375 218.105469 198.324219 C 219.28125 198.125 220.460938 198.039062 221.636719 197.84375 C 222.867188 197.644531 224.078125 197.363281 225.300781 197.160156 C 226.039062 197.035156 226.789062 197.035156 227.53125 196.910156 C 229.019531 196.652344 230.539062 196.640625 232.019531 196.25 C 232.730469 196.054688 233.492188 196.230469 234.25 196.035156 C 235.183594 195.796875 236.191406 195.855469 237.164062 195.757812 C 237.671875 195.710938 238.183594 195.613281 238.691406 195.527344 C 239.164062 195.449219 239.691406 195.746094 240.113281 195.304688 C 240.152344 195.265625 240.269531 195.304688 240.34375 195.296875 C 241.558594 195.21875 242.789062 195.257812 243.960938 195.027344 C 245.09375 194.816406 246.277344 195.035156 247.382812 194.59375 C 247.449219 194.566406 247.535156 194.59375 247.613281 194.59375 C 249.054688 194.515625 250.5 194.449219 251.929688 194.351562 C 252.59375 194.304688 253.257812 194.199219 253.929688 194.132812 C 254.554688 194.0625 255.21875 194.296875 255.816406 193.902344 C 255.871094 193.863281 255.96875 193.902344 256.046875 193.890625 C 257.527344 193.8125 259.007812 193.777344 260.476562 193.652344 C 261.46875 193.5625 262.4375 193.351562 263.429688 193.199219 C 263.621094 193.167969 263.84375 193.132812 264.007812 193.207031 C 264.246094 193.324219 264.429688 193.527344 264.640625 193.699219 C 264.449219 193.84375 264.257812 194.082031 264.042969 194.113281 C 263.113281 194.226562 262.167969 194.246094 261.238281 194.371094 C 259.332031 194.621094 257.421875 194.726562 255.507812 194.863281 C 253.710938 194.988281 251.921875 195.199219 250.125 195.324219 C 248.324219 195.449219 246.535156 195.660156 244.738281 195.796875 C 243.296875 195.902344 241.835938 196.074219 240.402344 196.265625 C 238.71875 196.488281 237.007812 196.515625 235.335938 196.902344 C 234.472656 197.105469 233.539062 197.046875 232.644531 197.160156 C 231.691406 197.285156 230.761719 197.480469 229.808594 197.613281 C 229.105469 197.71875 228.394531 197.75 227.691406 197.855469 C 226.242188 198.074219 224.769531 198.191406 223.328125 198.527344 C 222.136719 198.796875 220.894531 198.828125 219.695312 199.027344 C 218.144531 199.289062 216.609375 199.613281 215.058594 199.894531 C 214.445312 200.007812 213.820312 200.066406 213.203125 200.183594 C 211.734375 200.460938 210.261719 200.761719 208.789062 201.046875 C 207.859375 201.230469 206.917969 201.386719 205.992188 201.578125 C 204.28125 201.933594 202.582031 202.328125 200.867188 202.683594 C 199.582031 202.953125 198.28125 203.175781 196.996094 203.433594 C 195.886719 203.65625 194.78125 203.886719 193.675781 204.136719 C 192.371094 204.433594 191.0625 204.742188 189.765625 205.070312 C 187.023438 205.753906 184.304688 206.511719 181.542969 207.117188 C 179.101562 207.648438 176.699219 208.3125 174.3125 209.042969 C 170.746094 210.140625 167.179688 211.265625 163.671875 212.542969 C 161.316406 213.402344 158.949219 214.257812 156.585938 215.082031 C 155.238281 215.554688 153.921875 216.132812 152.613281 216.710938 C 152.058594 216.960938 151.566406 217.355469 151.027344 217.652344 C 150.875 217.738281 150.632812 217.777344 150.480469 217.71875 C 150.039062 217.535156 150.460938 217.171875 150.507812 217.132812 C 150.882812 216.796875 151.277344 216.449219 151.730469 216.246094 C 153.566406 215.441406 155.421875 214.679688 157.269531 213.910156 C 158.046875 213.574219 158.855469 213.285156 159.765625 212.96875 Z M 159.765625 212.96875 " fill-opacity="1" fill-rule="nonzero"/><path fill="#000000" d="M 67.46875 209.484375 C 71.613281 209.484375 75.640625 209.457031 79.671875 209.496094 C 81.652344 209.515625 83.652344 209.515625 85.613281 209.765625 C 86.792969 209.917969 87.957031 209.871094 89.121094 209.945312 C 91.226562 210.089844 93.332031 210.234375 95.4375 210.417969 C 97.003906 210.554688 98.570312 210.6875 100.128906 210.890625 C 101.6875 211.089844 103.246094 211.304688 104.820312 211.359375 C 106.082031 211.417969 107.332031 211.628906 108.582031 211.8125 C 110.070312 212.023438 111.5625 212.292969 113.0625 212.496094 C 113.957031 212.621094 114.859375 212.632812 115.753906 212.746094 C 116.589844 212.851562 117.417969 213.015625 118.242188 213.179688 C 118.820312 213.292969 119.40625 213.246094 120.003906 213.390625 C 121.289062 213.699219 122.664062 213.679688 123.984375 213.921875 C 126.144531 214.3125 128.359375 214.421875 130.480469 215.066406 C 130.617188 215.101562 130.828125 215.066406 130.90625 215.152344 C 131.03125 215.296875 131.164062 215.566406 131.105469 215.691406 C 131.039062 215.835938 130.742188 215.96875 130.578125 215.949219 C 129.269531 215.757812 127.972656 215.527344 126.664062 215.304688 C 124.894531 214.996094 123.128906 214.652344 121.359375 214.382812 C 119.953125 214.171875 118.542969 214.09375 117.136719 213.902344 C 115.714844 213.707031 114.3125 213.429688 112.886719 213.21875 C 112.1875 213.113281 111.484375 213.054688 110.773438 212.976562 C 109.128906 212.8125 107.484375 212.71875 105.851562 212.496094 C 104.332031 212.292969 102.800781 212.148438 101.285156 212.015625 C 99.839844 211.878906 98.398438 211.679688 96.949219 211.554688 C 94.917969 211.378906 92.890625 211.246094 90.871094 211.054688 C 89.851562 210.957031 88.824219 211.023438 87.824219 210.859375 C 86.152344 210.589844 84.457031 210.832031 82.8125 210.589844 C 81.324219 210.378906 79.851562 210.445312 78.371094 210.417969 C 73.640625 210.3125 68.894531 210.023438 64.183594 210.234375 C 59.25 210.464844 54.316406 210.140625 49.40625 210.457031 C 46.800781 210.621094 44.183594 210.398438 41.597656 210.6875 C 39.722656 210.898438 37.839844 210.660156 36.003906 210.910156 C 34.589844 211.101562 33.175781 210.929688 31.800781 211.140625 C 30.589844 211.324219 29.359375 211.179688 28.175781 211.378906 C 27.234375 211.542969 26.28125 211.429688 25.367188 211.59375 C 23.609375 211.898438 21.820312 211.832031 20.070312 212.238281 C 19.089844 212.457031 18.050781 212.410156 17.03125 212.496094 C 16.667969 212.523438 16.371094 212.363281 16.378906 212.042969 C 16.390625 211.871094 16.765625 211.601562 16.996094 211.582031 C 18.121094 211.457031 19.253906 211.449219 20.378906 211.324219 C 22.070312 211.128906 23.753906 210.871094 25.4375 210.640625 C 25.472656 210.628906 25.511719 210.640625 25.550781 210.640625 C 26.953125 210.5625 28.347656 210.464844 29.753906 210.410156 C 31.847656 210.320312 33.972656 210.410156 36.039062 210.128906 C 37.914062 209.871094 39.800781 210.167969 41.644531 209.917969 C 44.597656 209.523438 47.558594 209.925781 50.5 209.6875 C 56.105469 209.234375 61.730469 209.628906 67.46875 209.484375 Z M 67.46875 209.484375 " fill-opacity="1" fill-rule="nonzero"/><path fill="#000000" d="M 81.179688 203.894531 C 79.34375 203.742188 77.621094 203.644531 75.910156 203.414062 C 74.355469 203.203125 72.765625 203.15625 71.230469 202.90625 C 69.890625 202.683594 68.519531 203.039062 67.230469 202.511719 C 67.160156 202.480469 67.074219 202.511719 67 202.511719 C 65.25 202.433594 63.488281 202.453125 61.75 202.25 C 60.308594 202.078125 58.835938 202.230469 57.433594 202 C 56.097656 201.78125 54.757812 202 53.453125 201.796875 C 51.546875 201.5 49.617188 201.796875 47.742188 201.539062 C 45.710938 201.261719 43.695312 201.433594 41.675781 201.355469 C 38.800781 201.25 35.925781 201.039062 33.058594 201.164062 C 29.992188 201.289062 26.925781 201.289062 23.859375 201.375 C 22.023438 201.421875 20.1875 201.65625 18.359375 201.828125 C 17.964844 201.867188 17.570312 202 17.175781 202.039062 C 17.050781 202.050781 16.832031 201.90625 16.8125 201.796875 C 16.78125 201.671875 16.898438 201.472656 17.003906 201.367188 C 17.128906 201.25 17.3125 201.152344 17.484375 201.136719 C 18.300781 201.039062 19.121094 200.953125 19.945312 200.894531 C 21.386719 200.796875 22.847656 200.875 24.261719 200.617188 C 25.675781 200.355469 27.070312 200.441406 28.472656 200.433594 C 33.703125 200.402344 38.933594 200.328125 44.164062 200.460938 C 46.492188 200.519531 48.835938 200.480469 51.152344 200.703125 C 52.683594 200.855469 54.210938 200.671875 55.710938 200.914062 C 57.085938 201.136719 58.460938 200.933594 59.796875 201.152344 C 60.941406 201.335938 62.066406 201.242188 63.191406 201.355469 C 65.335938 201.585938 67.480469 201.710938 69.625 201.847656 C 71.304688 201.953125 72.96875 202.222656 74.660156 202.300781 C 76.34375 202.367188 78.027344 202.53125 79.699219 202.761719 C 81.101562 202.953125 82.527344 203.058594 83.917969 203.25 C 85.5625 203.480469 87.246094 203.472656 88.871094 203.886719 C 89.660156 204.089844 90.503906 204.058594 91.324219 204.136719 C 92.351562 204.234375 93.371094 204.339844 94.390625 204.578125 C 95.035156 204.734375 95.707031 204.65625 96.390625 204.800781 C 97.734375 205.089844 99.128906 205.109375 100.484375 205.320312 C 102.1875 205.578125 103.871094 205.953125 105.5625 206.234375 C 106.773438 206.4375 107.996094 206.511719 109.207031 206.714844 C 110.753906 206.972656 112.292969 207.3125 113.832031 207.601562 C 114.40625 207.707031 114.992188 207.761719 115.578125 207.867188 C 116.800781 208.089844 118.023438 208.351562 119.242188 208.5625 C 120.339844 208.746094 121.445312 208.859375 122.53125 209.042969 C 123.464844 209.195312 124.394531 209.390625 125.328125 209.582031 C 125.933594 209.707031 126.539062 209.839844 127.144531 209.964844 C 127.261719 209.984375 127.414062 209.917969 127.492188 209.976562 C 127.722656 210.148438 128.125 210.390625 128.109375 210.5625 C 128.070312 210.859375 127.703125 210.957031 127.359375 210.898438 C 126.339844 210.726562 125.320312 210.589844 124.308594 210.398438 C 123.234375 210.195312 122.175781 209.945312 121.097656 209.734375 C 119.523438 209.417969 117.953125 209.089844 116.367188 208.8125 C 115.28125 208.621094 114.167969 208.523438 113.082031 208.332031 C 111.464844 208.050781 109.851562 207.695312 108.234375 207.417969 C 107.070312 207.214844 105.878906 207.128906 104.707031 206.9375 C 102.9375 206.648438 101.167969 206.3125 99.398438 206.011719 C 98.734375 205.90625 98.070312 205.847656 97.398438 205.773438 C 95.917969 205.617188 94.417969 205.523438 92.949219 205.289062 C 91.035156 204.992188 89.121094 204.722656 87.1875 204.597656 C 85.777344 204.503906 84.371094 204.308594 82.96875 204.144531 C 82.402344 204.070312 81.851562 203.972656 81.179688 203.894531 Z M 81.179688 203.894531 " fill-opacity="1" fill-rule="nonzero"/><path fill="#000000" d="M 21.667969 197.152344 C 19.570312 197.230469 17.570312 197.199219 15.609375 197.429688 C 14.589844 197.554688 13.582031 197.574219 12.5625 197.613281 C 12.332031 197.625 12.121094 197.652344 12.121094 197.277344 C 12.121094 196.941406 12.273438 196.921875 12.535156 196.910156 C 13.707031 196.84375 14.898438 196.894531 16.03125 196.652344 C 17.523438 196.34375 19.003906 196.613281 20.476562 196.429688 C 24.273438 195.96875 28.078125 196.285156 31.886719 196.230469 C 35.722656 196.160156 39.558594 196.085938 43.386719 196.265625 C 45.605469 196.375 47.828125 196.285156 50.03125 196.507812 C 51.277344 196.632812 52.527344 196.605469 53.769531 196.691406 C 55.875 196.835938 57.980469 196.980469 60.085938 197.160156 C 61.613281 197.285156 63.132812 197.441406 64.652344 197.632812 C 66.230469 197.835938 67.785156 198.105469 69.363281 198.316406 C 70.257812 198.433594 71.160156 198.449219 72.054688 198.566406 C 72.890625 198.671875 73.710938 198.863281 74.546875 199.007812 C 75.171875 199.113281 75.796875 199.183594 76.421875 199.257812 C 77.785156 199.421875 79.160156 199.527344 80.527344 199.738281 C 82.304688 200.007812 84.0625 200.375 85.832031 200.652344 C 87.121094 200.855469 88.417969 200.941406 89.707031 201.136719 C 90.863281 201.316406 91.996094 201.597656 93.148438 201.796875 C 93.804688 201.914062 94.476562 201.941406 95.140625 202.058594 C 96.332031 202.261719 97.515625 202.5 98.707031 202.703125 C 99.359375 202.820312 100.023438 202.867188 100.6875 202.992188 C 102.195312 203.269531 103.695312 203.578125 105.207031 203.859375 C 106.214844 204.050781 107.234375 204.195312 108.246094 204.386719 C 109.636719 204.65625 111.023438 204.984375 112.417969 205.253906 C 113.464844 205.453125 114.523438 205.609375 115.570312 205.78125 C 115.6875 205.800781 115.828125 205.742188 115.917969 205.792969 C 116.203125 205.953125 116.464844 206.148438 116.742188 206.328125 C 116.472656 206.453125 116.195312 206.703125 115.925781 206.695312 C 115.222656 206.667969 114.523438 206.5625 113.832031 206.4375 C 112.753906 206.242188 111.6875 206.003906 110.617188 205.78125 C 108.761719 205.398438 106.90625 205.003906 105.050781 204.636719 C 104.042969 204.445312 103.015625 204.328125 101.996094 204.144531 C 100.457031 203.859375 98.917969 203.519531 97.371094 203.242188 C 96.324219 203.050781 95.253906 202.925781 94.199219 202.75 C 92.824219 202.53125 91.449219 202.269531 90.074219 202.058594 C 88.863281 201.875 87.640625 201.769531 86.429688 201.578125 C 85.160156 201.375 83.910156 201.105469 82.652344 200.894531 C 82.027344 200.789062 81.402344 200.730469 80.777344 200.652344 C 78.863281 200.421875 76.941406 200.191406 75.027344 199.953125 C 73.265625 199.730469 71.5 199.527344 69.738281 199.238281 C 68.410156 199.019531 67.085938 198.902344 65.75 198.757812 C 64.269531 198.59375 62.777344 198.433594 61.296875 198.296875 C 59.382812 198.113281 57.472656 197.988281 55.566406 197.804688 C 54.472656 197.699219 53.367188 197.796875 52.289062 197.613281 C 50.386719 197.296875 48.453125 197.613281 46.578125 197.355469 C 44.585938 197.085938 42.605469 197.191406 40.625 197.179688 C 34.328125 197.125 28.050781 197.152344 21.667969 197.152344 Z M 21.667969 197.152344 " fill-opacity="1" fill-rule="nonzero"/><path fill="#000000" d="M 219.761719 206.453125 C 222.25 206.195312 224.625 206.117188 227 205.933594 C 228.25 205.839844 229.511719 205.933594 230.742188 205.742188 C 232.644531 205.445312 234.578125 205.742188 236.453125 205.484375 C 238.480469 205.203125 240.5 205.320312 242.519531 205.308594 C 249.960938 205.273438 257.390625 205.300781 264.832031 205.289062 C 266.054688 205.289062 267.257812 205.117188 268.410156 204.675781 C 268.59375 204.609375 268.824219 204.683594 269.035156 204.703125 C 268.988281 204.914062 268.996094 205.15625 268.890625 205.328125 C 268.496094 205.945312 267.773438 205.917969 267.199219 205.972656 C 263.207031 206.398438 259.199219 206.40625 255.21875 206.167969 C 252.027344 205.972656 248.835938 205.925781 245.671875 206.058594 C 242.566406 206.195312 239.453125 206.042969 236.355469 206.292969 C 234.671875 206.425781 232.992188 206.273438 231.335938 206.503906 C 229.960938 206.695312 228.585938 206.523438 227.25 206.742188 C 226.066406 206.9375 224.894531 206.8125 223.742188 206.957031 C 221.875 207.175781 220 207.339844 218.125 207.417969 C 216.558594 207.484375 215 207.707031 213.433594 207.867188 C 212.019531 208.011719 210.617188 208.175781 209.214844 208.332031 C 207.925781 208.476562 206.628906 208.609375 205.339844 208.800781 C 204.03125 208.996094 202.742188 209.273438 201.445312 209.484375 C 200.78125 209.589844 200.117188 209.628906 199.457031 209.726562 C 198.03125 209.925781 196.601562 209.996094 195.207031 210.398438 C 194.53125 210.589844 193.800781 210.542969 193.101562 210.660156 C 191.871094 210.851562 190.640625 211.023438 189.429688 211.324219 C 188.398438 211.582031 187.3125 211.621094 186.253906 211.824219 C 184.753906 212.101562 183.265625 212.535156 181.753906 212.707031 C 180.753906 212.824219 179.785156 213.015625 178.8125 213.21875 C 176.679688 213.667969 174.554688 214.140625 172.429688 214.640625 C 171.738281 214.804688 171.074219 215.101562 170.382812 215.285156 C 170.207031 215.335938 169.988281 215.191406 169.785156 215.140625 C 169.910156 214.957031 169.988281 214.71875 170.152344 214.601562 C 170.449219 214.410156 170.777344 214.226562 171.121094 214.152344 C 173.054688 213.667969 174.996094 213.21875 176.929688 212.746094 C 178.160156 212.449219 179.371094 212.074219 180.613281 211.832031 C 182.128906 211.542969 183.679688 211.378906 185.199219 211.109375 C 186.234375 210.929688 187.246094 210.609375 188.285156 210.4375 C 189.484375 210.234375 190.707031 210.121094 191.925781 209.957031 C 193.023438 209.8125 194.128906 209.667969 195.214844 209.484375 C 195.9375 209.371094 196.628906 209.128906 197.351562 209.03125 C 199.261719 208.773438 201.1875 208.601562 203.097656 208.3125 C 204.972656 208.03125 206.839844 207.714844 208.734375 207.589844 C 210.058594 207.492188 211.386719 207.261719 212.722656 207.136719 C 214.40625 206.972656 216.070312 206.714844 217.761719 206.695312 C 218.386719 206.667969 219.011719 206.53125 219.761719 206.453125 Z M 219.761719 206.453125 " fill-opacity="1" fill-rule="nonzero"/><path fill="#000000" d="M 200.984375 213.957031 C 200.792969 214.054688 200.648438 214.121094 200.511719 214.132812 C 198.878906 214.21875 197.246094 214.257812 195.609375 214.382812 C 194.003906 214.496094 192.398438 214.640625 190.800781 214.851562 C 189.609375 215.015625 188.4375 215.316406 187.253906 215.527344 C 187.070312 215.554688 186.820312 215.441406 186.660156 215.316406 C 186.457031 215.160156 186.371094 214.941406 186.746094 214.84375 C 187.304688 214.691406 187.851562 214.488281 188.417969 214.390625 C 189.109375 214.265625 189.839844 214.285156 190.523438 214.132812 C 192.273438 213.757812 194.082031 213.902344 195.820312 213.449219 C 195.898438 213.429688 195.976562 213.449219 196.050781 213.449219 C 197.570312 213.371094 199.089844 213.351562 200.601562 213.207031 C 203.28125 212.949219 205.972656 212.863281 208.65625 212.6875 C 209.90625 212.613281 211.164062 212.660156 212.394531 212.503906 C 214.453125 212.246094 216.539062 212.476562 218.570312 212.238281 C 220.492188 212.003906 222.394531 212.21875 224.289062 212.042969 C 228.480469 211.679688 232.683594 212.042969 236.863281 211.765625 C 239.671875 211.574219 242.46875 211.515625 245.257812 211.640625 C 249.882812 211.84375 254.496094 211.660156 259.113281 211.890625 C 261.21875 211.996094 263.332031 211.832031 265.410156 212.101562 C 267.285156 212.34375 269.148438 212.199219 271.015625 212.304688 C 271.285156 212.324219 271.554688 212.496094 271.8125 212.601562 C 271.535156 212.804688 271.246094 213.199219 270.976562 213.1875 C 269.574219 213.132812 268.148438 213.46875 266.765625 212.996094 C 266.488281 212.898438 266.148438 212.988281 265.84375 212.988281 C 261.382812 212.910156 256.910156 212.996094 252.460938 212.71875 C 246.519531 212.351562 240.585938 212.476562 234.652344 212.601562 C 231.394531 212.667969 228.117188 212.503906 224.875 212.804688 C 222.769531 212.996094 220.65625 212.765625 218.578125 213.023438 C 216.820312 213.246094 215.050781 213.007812 213.328125 213.265625 C 211.800781 213.496094 210.273438 213.257812 208.773438 213.488281 C 207.398438 213.699219 206.023438 213.507812 204.6875 213.726562 C 203.457031 213.910156 202.253906 213.84375 200.984375 213.957031 Z M 200.984375 213.957031 " fill-opacity="1" fill-rule="nonzero"/><path fill="#000000" d="M 240.21875 199.941406 C 239.75 200.019531 239.394531 200.144531 239.039062 200.164062 C 237.546875 200.242188 236.058594 200.355469 234.578125 200.625 C 233.652344 200.789062 232.691406 200.710938 231.777344 200.894531 C 230.519531 201.152344 229.222656 201.117188 227.992188 201.546875 C 227.375 201.769531 226.664062 201.710938 226 201.808594 C 224.335938 202.050781 222.675781 202.28125 221.03125 202.710938 C 220 202.980469 218.90625 203 217.855469 203.214844 C 215.964844 203.597656 214.039062 203.828125 212.164062 204.339844 C 210.828125 204.703125 209.414062 204.78125 208.050781 205.070312 C 206.097656 205.484375 204.167969 205.984375 202.222656 206.425781 C 201.722656 206.542969 201.214844 206.617188 200.707031 206.675781 C 200.511719 206.695312 200.214844 206.800781 200.226562 206.398438 C 200.226562 206.136719 200.253906 206.03125 200.582031 205.964844 C 201.347656 205.800781 202.089844 205.464844 202.859375 205.300781 C 205.136719 204.808594 207.433594 204.378906 209.714844 203.886719 C 211.414062 203.519531 213.109375 203.078125 214.820312 202.742188 C 215.945312 202.519531 217.097656 202.453125 218.222656 202.25 C 219.261719 202.066406 220.269531 201.761719 221.308594 201.578125 C 222.394531 201.375 223.519531 201.328125 224.597656 201.085938 C 225.808594 200.808594 227.078125 200.855469 228.269531 200.433594 C 228.808594 200.242188 229.433594 200.382812 230.039062 200.210938 C 230.855469 199.980469 231.75 200.046875 232.605469 199.933594 C 233.585938 199.808594 234.566406 199.613281 235.558594 199.480469 C 236.335938 199.375 237.113281 199.296875 237.902344 199.25 C 239.460938 199.152344 241.027344 199.191406 242.566406 198.980469 C 243.894531 198.796875 245.25 198.960938 246.535156 198.738281 C 248.027344 198.480469 249.507812 198.683594 250.980469 198.546875 C 254.277344 198.25 257.574219 198.375 260.882812 198.296875 C 262.101562 198.269531 263.3125 198 264.527344 197.863281 C 264.71875 197.84375 264.917969 197.96875 265.121094 198.019531 C 265.054688 198.21875 265.042969 198.519531 264.910156 198.613281 C 264.621094 198.808594 264.257812 198.980469 263.917969 199 C 261.632812 199.105469 259.332031 199.183594 257.046875 199.238281 C 255.882812 199.269531 254.71875 199.21875 253.554688 199.25 C 251.304688 199.308594 249.035156 199.277344 246.796875 199.527344 C 245.535156 199.671875 244.289062 199.546875 243.054688 199.75 C 242.125 199.894531 241.238281 199.933594 240.21875 199.941406 Z M 240.21875 199.941406 " fill-opacity="1" fill-rule="nonzero"/><path fill="#000000" d="M 49.386719 204.886719 C 53.355469 204.828125 57.269531 204.828125 61.183594 204.828125 C 61.585938 204.828125 62.25 204.683594 62.269531 205.15625 C 62.289062 205.65625 61.632812 205.511719 61.238281 205.523438 C 58.953125 205.597656 56.652344 205.703125 54.367188 205.753906 C 52.664062 205.792969 50.953125 205.65625 49.25 205.78125 C 45.835938 206.023438 42.40625 205.839844 39 206.050781 C 37.203125 206.167969 35.40625 206.023438 33.636719 206.261719 C 32.339844 206.4375 31.050781 206.339844 29.78125 206.472656 C 28.0625 206.65625 26.347656 206.839844 24.628906 206.945312 C 23.050781 207.050781 21.484375 207.398438 19.917969 207.609375 C 19.53125 207.65625 19.136719 207.636719 18.753906 207.601562 C 18.628906 207.589844 18.445312 207.4375 18.40625 207.3125 C 18.332031 207.0625 18.425781 206.9375 18.753906 206.898438 C 19.667969 206.792969 20.5625 206.5625 21.464844 206.453125 C 23.175781 206.261719 24.917969 206.242188 26.609375 205.933594 C 27.523438 205.773438 28.425781 205.886719 29.300781 205.722656 C 30.703125 205.453125 32.128906 205.695312 33.503906 205.472656 C 35.109375 205.203125 36.703125 205.425781 38.289062 205.273438 C 41.855469 204.933594 45.433594 205.078125 49 205.039062 C 49.136719 205.058594 49.230469 204.984375 49.386719 204.886719 Z M 49.386719 204.886719 " fill-opacity="1" fill-rule="nonzero"/><path fill="#000000" d="M 242.777344 191.332031 C 244.488281 191.253906 246.105469 191.324219 247.671875 191.0625 C 249.277344 190.792969 250.871094 191.023438 252.460938 190.859375 C 255.054688 190.589844 257.671875 190.503906 260.257812 190.6875 C 262.785156 190.871094 265.304688 190.839844 267.824219 190.859375 C 268.292969 190.859375 268.765625 190.660156 269.238281 190.660156 C 269.488281 190.660156 269.738281 190.898438 269.976562 191.023438 C 269.773438 191.207031 269.59375 191.523438 269.378906 191.542969 C 268.101562 191.667969 266.792969 191.898438 265.535156 191.765625 C 261.507812 191.34375 257.46875 191.582031 253.429688 191.621094 C 251.574219 191.640625 249.691406 191.648438 247.84375 191.851562 C 246.75 191.976562 245.644531 191.863281 244.574219 192.054688 C 242.75 192.382812 240.863281 192.246094 239.046875 192.707031 C 238.257812 192.910156 237.402344 192.84375 236.597656 192.96875 C 235.441406 193.152344 234.308594 193.429688 233.152344 193.621094 C 231.25 193.929688 229.394531 194.371094 227.566406 195.007812 C 227.421875 195.054688 227.203125 194.851562 227.011719 194.765625 C 227.117188 194.554688 227.164062 194.207031 227.328125 194.152344 C 228.105469 193.871094 228.894531 193.621094 229.703125 193.4375 C 231.152344 193.101562 232.617188 192.792969 234.078125 192.507812 C 235.328125 192.253906 236.585938 192.015625 237.855469 191.8125 C 238.585938 191.699219 239.335938 191.648438 240.074219 191.574219 C 240.941406 191.484375 241.796875 191.410156 242.777344 191.332031 Z M 242.777344 191.332031 " fill-opacity="1" fill-rule="nonzero"/><path fill="#000000" d="M 25.378906 193.429688 C 28.136719 193.351562 30.792969 193.429688 33.414062 193.152344 C 35.519531 192.917969 37.636719 193.1875 39.714844 192.929688 C 41.664062 192.679688 43.625 192.9375 45.539062 192.6875 C 47.03125 192.488281 48.5 192.574219 49.980469 192.515625 C 50.144531 192.507812 50.316406 192.679688 50.492188 192.765625 C 50.335938 192.910156 50.203125 193.152344 50.019531 193.1875 C 49.40625 193.3125 48.769531 193.410156 48.144531 193.429688 C 45.308594 193.527344 42.460938 193.429688 39.644531 193.726562 C 37.570312 193.9375 35.503906 193.6875 33.464844 193.9375 C 31.320312 194.207031 29.167969 193.949219 27.050781 194.1875 C 25.753906 194.332031 24.464844 194.246094 23.195312 194.382812 C 20.976562 194.621094 18.753906 194.746094 16.53125 194.871094 C 14.8125 194.96875 13.109375 195.316406 11.378906 195.304688 C 11.265625 195.304688 11.109375 195.285156 11.054688 195.351562 C 10.648438 195.777344 10.351562 195.429688 10.304688 195.140625 C 10.246094 194.757812 10.589844 194.632812 10.984375 194.601562 C 12.859375 194.46875 14.746094 194.363281 16.601562 194.132812 C 18.550781 193.890625 20.492188 193.699219 22.457031 193.671875 C 23.398438 193.640625 24.332031 193.507812 25.378906 193.429688 Z M 25.378906 193.429688 " fill-opacity="1" fill-rule="nonzero"/><g fill="#000000" fill-opacity="1"><g transform="translate(307.763074, 212.877699)"><g><path d="M 47.585938 -11.875 L 20.316406 -11.875 L 20.316406 -53.914062 L 6.25 -53.914062 L 6.25 0 L 47.585938 0 Z M 47.585938 -11.875 "/></g></g></g><g fill="#000000" fill-opacity="1"><g transform="translate(356.828594, 212.877699)"><g><path d="M 11.25 -58.679688 C 6.875 -58.679688 3.984375 -56.023438 3.984375 -51.804688 C 3.984375 -47.585938 6.875 -44.929688 11.25 -44.929688 C 15.628906 -44.929688 18.519531 -47.585938 18.519531 -51.804688 C 18.519531 -56.023438 15.628906 -58.679688 11.25 -58.679688 Z M 18.285156 0 L 18.285156 -41.726562 L 4.21875 -41.726562 L 4.21875 0 Z M 18.285156 0 "/></g></g></g><g fill="#000000" fill-opacity="1"><g transform="translate(379.329986, 212.877699)"><g><path d="M 21.097656 -32.660156 L 30.316406 -32.660156 L 30.316406 -41.414062 L 21.097656 -41.414062 L 21.097656 -52.195312 L 7.03125 -52.195312 L 7.03125 -41.414062 L 0.390625 -41.414062 L 0.390625 -32.660156 L 7.03125 -32.660156 L 7.03125 -15.238281 C 7.03125 -12.890625 7.03125 -10.9375 7.1875 -8.515625 C 7.65625 -2.109375 10.78125 1.09375 21.175781 1.09375 C 24.144531 1.09375 26.722656 0.859375 29.457031 0.390625 L 29.457031 -8.359375 C 22.816406 -8.046875 21.488281 -8.984375 21.175781 -13.203125 C 21.097656 -14.300781 21.097656 -15.863281 21.097656 -17.269531 Z M 21.097656 -32.660156 "/></g></g></g><g fill="#000000" fill-opacity="1"><g transform="translate(410.581906, 212.877699)"><g><path d="M 45.085938 -21.410156 C 45.085938 -32.191406 38.050781 -42.820312 24.144531 -42.820312 C 10.234375 -42.820312 1.875 -32.894531 1.875 -20.707031 C 1.875 -6.015625 11.40625 1.09375 23.363281 1.09375 C 34.066406 1.09375 41.882812 -4.21875 44.304688 -13.675781 L 30.472656 -13.675781 C 29.925781 -10.46875 27.503906 -8.4375 23.519531 -8.4375 C 19.535156 -8.4375 16.488281 -10.390625 15.785156 -17.347656 L 44.851562 -17.347656 C 45.007812 -18.753906 45.085938 -20.160156 45.085938 -21.410156 Z M 23.441406 -33.285156 C 27.191406 -33.285156 29.613281 -30.863281 30.394531 -25.941406 L 16.253906 -25.941406 C 17.191406 -31.097656 19.769531 -33.285156 23.441406 -33.285156 Z M 23.441406 -33.285156 "/></g></g></g><g fill="#000000" fill-opacity="1"><g transform="translate(457.537916, 212.877699)"><g><path d="M 29.457031 -42.820312 C 26.800781 -42.820312 23.519531 -41.648438 21.253906 -39.144531 L 18.285156 -33.285156 L 18.285156 -41.726562 L 4.21875 -41.726562 L 4.21875 0 L 18.285156 0 L 18.285156 -15.316406 C 18.285156 -27.894531 22.113281 -31.800781 32.660156 -31.097656 L 32.660156 -42.585938 C 31.644531 -42.742188 30.785156 -42.820312 29.457031 -42.820312 Z M 29.457031 -42.820312 "/></g></g></g><g fill="#000000" fill-opacity="1"><g transform="translate(490.352439, 212.877699)"><g><path d="M 28.675781 0 L 42.429688 0 C 41.804688 -4.609375 41.648438 -7.421875 41.648438 -10.546875 L 41.648438 -22.269531 C 41.648438 -24.847656 41.570312 -27.269531 41.414062 -29.378906 C 40.789062 -36.957031 36.253906 -42.820312 23.050781 -42.820312 C 12.5 -42.820312 3.828125 -37.269531 3.75 -27.503906 L 17.035156 -27.582031 C 17.269531 -31.175781 19.144531 -33.285156 22.425781 -33.285156 C 25.472656 -33.285156 27.191406 -31.410156 27.425781 -29.300781 C 27.582031 -27.972656 27.582031 -27.113281 27.582031 -26.253906 L 27.582031 -25.628906 L 24.925781 -25.628906 C 10.78125 -25.628906 2.34375 -20.160156 2.34375 -11.25 C 2.34375 -3.203125 8.828125 1.09375 15.707031 1.09375 C 19.535156 1.09375 23.050781 0.15625 26.019531 -1.71875 L 27.738281 -6.09375 Z M 21.488281 -8.4375 C 18.675781 -8.4375 16.722656 -9.84375 16.722656 -12.34375 C 16.722656 -16.488281 21.253906 -18.128906 27.582031 -17.660156 L 27.582031 -14.925781 C 27.582031 -10.546875 24.300781 -8.4375 21.488281 -8.4375 Z M 21.488281 -8.4375 "/></g></g></g><g fill="#000000" fill-opacity="1"><g transform="translate(536.214632, 212.877699)"><g><path d="M 21.097656 -32.660156 L 30.316406 -32.660156 L 30.316406 -41.414062 L 21.097656 -41.414062 L 21.097656 -52.195312 L 7.03125 -52.195312 L 7.03125 -41.414062 L 0.390625 -41.414062 L 0.390625 -32.660156 L 7.03125 -32.660156 L 7.03125 -15.238281 C 7.03125 -12.890625 7.03125 -10.9375 7.1875 -8.515625 C 7.65625 -2.109375 10.78125 1.09375 21.175781 1.09375 C 24.144531 1.09375 26.722656 0.859375 29.457031 0.390625 L 29.457031 -8.359375 C 22.816406 -8.046875 21.488281 -8.984375 21.175781 -13.203125 C 21.097656 -14.300781 21.097656 -15.863281 21.097656 -17.269531 Z M 21.097656 -32.660156 "/></g></g></g><g fill="#000000" fill-opacity="1"><g transform="translate(567.466538, 212.877699)"><g><path d="M 45.789062 -41.726562 L 31.722656 -41.726562 L 31.722656 -18.128906 C 31.722656 -12.578125 29.066406 -8.4375 24.613281 -8.4375 C 20.160156 -8.4375 18.285156 -10.78125 17.816406 -14.769531 C 17.582031 -16.878906 17.503906 -19.144531 17.503906 -20.472656 L 17.503906 -41.726562 L 3.4375 -41.726562 L 3.4375 -17.347656 C 3.4375 -13.988281 3.515625 -11.5625 3.828125 -9.453125 C 4.765625 -3.75 10 1.09375 18.597656 1.09375 C 22.425781 1.09375 25.394531 0.234375 27.972656 -1.328125 L 31.722656 -7.03125 L 31.722656 0 L 45.789062 0 Z M 45.789062 -41.726562 "/></g></g></g><g fill="#000000" fill-opacity="1"><g transform="translate(617.469616, 212.877699)"><g><path d="M 29.457031 -42.820312 C 26.800781 -42.820312 23.519531 -41.648438 21.253906 -39.144531 L 18.285156 -33.285156 L 18.285156 -41.726562 L 4.21875 -41.726562 L 4.21875 0 L 18.285156 0 L 18.285156 -15.316406 C 18.285156 -27.894531 22.113281 -31.800781 32.660156 -31.097656 L 32.660156 -42.585938 C 31.644531 -42.742188 30.785156 -42.820312 29.457031 -42.820312 Z M 29.457031 -42.820312 "/></g></g></g><g fill="#000000" fill-opacity="1"><g transform="translate(650.284125, 212.877699)"><g><path d="M 45.085938 -21.410156 C 45.085938 -32.191406 38.050781 -42.820312 24.144531 -42.820312 C 10.234375 -42.820312 1.875 -32.894531 1.875 -20.707031 C 1.875 -6.015625 11.40625 1.09375 23.363281 1.09375 C 34.066406 1.09375 41.882812 -4.21875 44.304688 -13.675781 L 30.472656 -13.675781 C 29.925781 -10.46875 27.503906 -8.4375 23.519531 -8.4375 C 19.535156 -8.4375 16.488281 -10.390625 15.785156 -17.347656 L 44.851562 -17.347656 C 45.007812 -18.753906 45.085938 -20.160156 45.085938 -21.410156 Z M 23.441406 -33.285156 C 27.191406 -33.285156 29.613281 -30.863281 30.394531 -25.941406 L 16.253906 -25.941406 C 17.191406 -31.097656 19.769531 -33.285156 23.441406 -33.285156 Z M 23.441406 -33.285156 "/></g></g></g><g fill="#000000" fill-opacity="1"><g transform="translate(697.240149, 212.877699)"><g><path d="M 22.035156 -18.363281 L 22.035156 -25.863281 L 2.5 -25.863281 L 2.5 -18.363281 Z M 22.035156 -18.363281 "/></g></g></g><g fill="#000000" fill-opacity="1"><g transform="translate(721.772916, 212.877699)"><g><path d="M 21.410156 -42.820312 C 10.3125 -42.820312 3.125 -37.660156 3.125 -29.378906 C 3.125 -22.269531 7.890625 -18.597656 15.863281 -16.722656 C 23.285156 -15.003906 25.941406 -13.519531 25.941406 -10.859375 C 25.941406 -8.671875 23.988281 -7.65625 21.488281 -7.65625 C 18.519531 -7.65625 16.019531 -9.765625 15.238281 -12.96875 L 1.40625 -12.96875 C 2.5 -3.59375 10.234375 1.09375 21.566406 1.09375 C 31.644531 1.09375 40.007812 -3.046875 40.007812 -11.953125 C 40.007812 -20.003906 34.613281 -23.285156 27.035156 -25.160156 C 19.066406 -27.113281 17.191406 -28.675781 17.191406 -31.019531 C 17.191406 -32.816406 18.597656 -34.066406 20.550781 -34.066406 C 23.050781 -34.066406 24.457031 -32.425781 25.082031 -29.535156 L 38.910156 -29.535156 C 37.816406 -37.113281 31.800781 -42.820312 21.410156 -42.820312 Z M 21.410156 -42.820312 "/></g></g></g><g fill="#000000" fill-opacity="1"><g transform="translate(763.025467, 212.877699)"><g><path d="M 45.085938 -21.410156 C 45.085938 -32.191406 38.050781 -42.820312 24.144531 -42.820312 C 10.234375 -42.820312 1.875 -32.894531 1.875 -20.707031 C 1.875 -6.015625 11.40625 1.09375 23.363281 1.09375 C 34.066406 1.09375 41.882812 -4.21875 44.304688 -13.675781 L 30.472656 -13.675781 C 29.925781 -10.46875 27.503906 -8.4375 23.519531 -8.4375 C 19.535156 -8.4375 16.488281 -10.390625 15.785156 -17.347656 L 44.851562 -17.347656 C 45.007812 -18.753906 45.085938 -20.160156 45.085938 -21.410156 Z M 23.441406 -33.285156 C 27.191406 -33.285156 29.613281 -30.863281 30.394531 -25.941406 L 16.253906 -25.941406 C 17.191406 -31.097656 19.769531 -33.285156 23.441406 -33.285156 Z M 23.441406 -33.285156 "/></g></g></g><g fill="#000000" fill-opacity="1"><g transform="translate(311.551014, 137.628126)"><g><path d="M 7.546875 -3.328125 L 18.5 -3.328125 L 18.5 0 L 3.453125 0 L 3.453125 -31.296875 L 7.546875 -31.296875 Z M 7.546875 -3.328125 "/></g></g></g><g fill="#000000" fill-opacity="1"><g transform="translate(330.947472, 137.628126)"><g><path d="M 5.5625 -28.609375 C 4.789062 -28.609375 4.132812 -28.875 3.59375 -29.40625 C 3.050781 -29.945312 2.78125 -30.609375 2.78125 -31.390625 C 2.78125 -32.171875 3.050781 -32.828125 3.59375 -33.359375 C 4.132812 -33.898438 4.789062 -34.171875 5.5625 -34.171875 C 6.3125 -34.171875 6.945312 -33.898438 7.46875 -33.359375 C 8 -32.828125 8.265625 -32.171875 8.265625 -31.390625 C 8.265625 -30.609375 8 -29.945312 7.46875 -29.40625 C 6.945312 -28.875 6.3125 -28.609375 5.5625 -28.609375 Z M 7.546875 -24.609375 L 7.546875 0 L 3.453125 0 L 3.453125 -24.609375 Z M 7.546875 -24.609375 "/></g></g></g><g fill="#000000" fill-opacity="1"><g transform="translate(341.992678, 137.628126)"><g><path d="M 12.625 -3.765625 L 20.25 -24.609375 L 24.609375 -24.609375 L 14.953125 0 L 10.1875 0 L 0.53125 -24.609375 L 4.9375 -24.609375 Z M 12.625 -3.765625 "/></g></g></g><g fill="#000000" fill-opacity="1"><g transform="translate(367.181134, 137.628126)"><g><path d="M 7.546875 -20.609375 C 8.265625 -22.015625 9.289062 -23.109375 10.625 -23.890625 C 11.957031 -24.671875 13.582031 -25.0625 15.5 -25.0625 L 15.5 -20.84375 L 14.421875 -20.84375 C 9.835938 -20.84375 7.546875 -18.351562 7.546875 -13.375 L 7.546875 0 L 3.453125 0 L 3.453125 -24.609375 L 7.546875 -24.609375 Z M 7.546875 -20.609375 "/></g></g></g><g fill="#000000" fill-opacity="1"><g transform="translate(383.928538, 137.628126)"><g><path d="M 1.9375 -12.390625 C 1.9375 -14.910156 2.441406 -17.117188 3.453125 -19.015625 C 4.472656 -20.921875 5.875 -22.394531 7.65625 -23.4375 C 9.4375 -24.488281 11.421875 -25.015625 13.609375 -25.015625 C 15.765625 -25.015625 17.632812 -24.550781 19.21875 -23.625 C 20.800781 -22.695312 21.984375 -21.53125 22.765625 -20.125 L 22.765625 -24.609375 L 26.90625 -24.609375 L 26.90625 0 L 22.765625 0 L 22.765625 -4.578125 C 21.960938 -3.140625 20.757812 -1.945312 19.15625 -1 C 17.550781 -0.0625 15.6875 0.40625 13.5625 0.40625 C 11.375 0.40625 9.394531 -0.128906 7.625 -1.203125 C 5.863281 -2.285156 4.472656 -3.800781 3.453125 -5.75 C 2.441406 -7.695312 1.9375 -9.910156 1.9375 -12.390625 Z M 22.765625 -12.34375 C 22.765625 -14.207031 22.390625 -15.828125 21.640625 -17.203125 C 20.890625 -18.578125 19.878906 -19.628906 18.609375 -20.359375 C 17.335938 -21.097656 15.941406 -21.46875 14.421875 -21.46875 C 12.890625 -21.46875 11.492188 -21.109375 10.234375 -20.390625 C 8.984375 -19.671875 7.984375 -18.617188 7.234375 -17.234375 C 6.484375 -15.859375 6.109375 -14.242188 6.109375 -12.390625 C 6.109375 -10.503906 6.484375 -8.863281 7.234375 -7.46875 C 7.984375 -6.082031 8.984375 -5.019531 10.234375 -4.28125 C 11.492188 -3.550781 12.890625 -3.1875 14.421875 -3.1875 C 15.941406 -3.1875 17.335938 -3.550781 18.609375 -4.28125 C 19.878906 -5.019531 20.890625 -6.082031 21.640625 -7.46875 C 22.390625 -8.863281 22.765625 -10.488281 22.765625 -12.34375 Z M 22.765625 -12.34375 "/></g></g></g><g fill="#000000" fill-opacity="1"><g transform="translate(414.280404, 137.628126)"><g><path d="M 7.546875 -20.609375 C 8.265625 -22.015625 9.289062 -23.109375 10.625 -23.890625 C 11.957031 -24.671875 13.582031 -25.0625 15.5 -25.0625 L 15.5 -20.84375 L 14.421875 -20.84375 C 9.835938 -20.84375 7.546875 -18.351562 7.546875 -13.375 L 7.546875 0 L 3.453125 0 L 3.453125 -24.609375 L 7.546875 -24.609375 Z M 7.546875 -20.609375 "/></g></g></g><g fill="#000000" fill-opacity="1"><g transform="translate(431.027808, 137.628126)"><g><path d="M 5.5625 -28.609375 C 4.789062 -28.609375 4.132812 -28.875 3.59375 -29.40625 C 3.050781 -29.945312 2.78125 -30.609375 2.78125 -31.390625 C 2.78125 -32.171875 3.050781 -32.828125 3.59375 -33.359375 C 4.132812 -33.898438 4.789062 -34.171875 5.5625 -34.171875 C 6.3125 -34.171875 6.945312 -33.898438 7.46875 -33.359375 C 8 -32.828125 8.265625 -32.171875 8.265625 -31.390625 C 8.265625 -30.609375 8 -29.945312 7.46875 -29.40625 C 6.945312 -28.875 6.3125 -28.609375 5.5625 -28.609375 Z M 7.546875 -24.609375 L 7.546875 0 L 3.453125 0 L 3.453125 -24.609375 Z M 7.546875 -24.609375 "/></g></g></g><g fill="#000000" fill-opacity="1"><g transform="translate(442.073014, 137.628126)"><g><path d="M 1.9375 -12.390625 C 1.9375 -14.910156 2.441406 -17.117188 3.453125 -19.015625 C 4.472656 -20.921875 5.875 -22.394531 7.65625 -23.4375 C 9.4375 -24.488281 11.421875 -25.015625 13.609375 -25.015625 C 15.765625 -25.015625 17.632812 -24.550781 19.21875 -23.625 C 20.800781 -22.695312 21.984375 -21.53125 22.765625 -20.125 L 22.765625 -24.609375 L 26.90625 -24.609375 L 26.90625 0 L 22.765625 0 L 22.765625 -4.578125 C 21.960938 -3.140625 20.757812 -1.945312 19.15625 -1 C 17.550781 -0.0625 15.6875 0.40625 13.5625 0.40625 C 11.375 0.40625 9.394531 -0.128906 7.625 -1.203125 C 5.863281 -2.285156 4.472656 -3.800781 3.453125 -5.75 C 2.441406 -7.695312 1.9375 -9.910156 1.9375 -12.390625 Z M 22.765625 -12.34375 C 22.765625 -14.207031 22.390625 -15.828125 21.640625 -17.203125 C 20.890625 -18.578125 19.878906 -19.628906 18.609375 -20.359375 C 17.335938 -21.097656 15.941406 -21.46875 14.421875 -21.46875 C 12.890625 -21.46875 11.492188 -21.109375 10.234375 -20.390625 C 8.984375 -19.671875 7.984375 -18.617188 7.234375 -17.234375 C 6.484375 -15.859375 6.109375 -14.242188 6.109375 -12.390625 C 6.109375 -10.503906 6.484375 -8.863281 7.234375 -7.46875 C 7.984375 -6.082031 8.984375 -5.019531 10.234375 -4.28125 C 11.492188 -3.550781 12.890625 -3.1875 14.421875 -3.1875 C 15.941406 -3.1875 17.335938 -3.550781 18.609375 -4.28125 C 19.878906 -5.019531 20.890625 -6.082031 21.640625 -7.46875 C 22.390625 -8.863281 22.765625 -10.488281 22.765625 -12.34375 Z M 22.765625 -12.34375 "/></g></g></g></svg>